<svg width="32" height="32" viewBox="0 0 32 32" fill="none" xmlns="http://www.w3.org/2000/svg">
<path d="M16 29C23.1797 29 29 23.1797 29 16C29 8.8203 23.1797 3 16 3C8.8203 3 3 8.8203 3 16C3 23.1797 8.8203 29 16 29Z" fill="#4E6F71"/>
<path d="M20.2694 6.76089L19.767 6H16.7255V12.8523L16.715 19.5454C16.7202 19.5951 16.7255 19.6499 16.7255 19.6996C16.7255 21.3754 15.3056 22.7429 13.5544 22.7429C11.8032 22.7429 10.3834 21.3803 10.3834 19.6996C10.3834 18.0238 11.8032 16.6564 13.5544 16.6564C13.9171 16.6564 14.2695 16.721 14.5958 16.8305V13.4888C14.2592 13.434 13.9119 13.4043 13.5544 13.4043C9.94302 13.4092 7 16.2338 7 19.7046C7 23.1756 9.94302 26 13.5597 26C17.1761 26 20.1192 23.1756 20.1192 19.7046V11.7434C21.43 13.0016 23.1244 14.2297 25 14.6225V11.2063C22.9637 10.3412 20.938 7.78518 20.2694 6.76089Z" fill="#F8FFFF"/>
</svg>
