<svg width="401" height="401" viewBox="0 0 401 401" fill="none" xmlns="http://www.w3.org/2000/svg">
<path d="M400.09 400.219C266.76 400.219 133.42 400.219 0.0898438 400.219C0.0898438 266.889 0.0898438 133.549 0.0898438 0.21875C133.42 0.21875 266.76 0.21875 400.09 0.21875C400.09 133.549 400.09 266.879 400.09 400.219ZM167.49 151.399C165.63 154.459 164.37 156.959 162.72 159.179C160.37 162.349 160.47 165.039 162.55 168.529C172.52 185.249 182.14 202.189 191.97 218.999C196.62 226.949 201.51 226.789 206.16 218.749C220.42 194.119 234.72 169.509 248.99 144.889C255.67 133.369 262.33 121.839 269 110.299C270.73 107.309 271.43 103.909 268.49 101.709C266.73 100.389 263.2 99.6088 261.39 100.489C252.46 104.859 243.83 109.869 234.71 114.859C237 118.699 239.07 122.169 241.1 125.569C242.94 124.799 244.24 124.249 245.92 123.549C245.7 124.489 245.7 124.989 245.49 125.359C231 150.429 216.52 175.509 201.97 200.539C199.86 204.169 198.21 204.089 195.92 200.279C191.9 193.569 188.05 186.759 184.12 179.989C178.71 170.679 173.29 161.379 167.49 151.399ZM338.85 276.819C339.05 276.809 339.24 276.809 339.44 276.799C339.16 272.169 339.53 267.389 338.46 262.949C335.96 252.599 325.72 245.869 313.76 245.959C301.9 246.049 291.36 252.989 289.74 263.679C288.44 272.249 288.32 281.399 289.82 289.909C292.08 302.789 306.92 310.189 320.92 306.639C329.96 304.349 336.54 298.979 338.7 289.709C339.64 285.629 338.85 281.139 338.85 276.819ZM234.68 246.889C234.68 266.899 234.68 286.429 234.68 306.109C238.6 306.109 242.19 306.109 246.42 306.109C246.42 299.439 246.42 293.039 246.42 286.979C252.24 284.949 255.53 286.899 257.88 291.669C259.93 295.839 262.44 299.789 264.96 303.709C265.67 304.819 267.04 306.089 268.21 306.199C271.71 306.529 275.26 306.319 279.61 306.319C277.06 301.949 275.05 298.529 273.06 295.099C271.07 291.679 269.09 288.259 267.12 284.869C277.47 277.869 280.7 270.269 277.84 260.159C275.53 252.009 267.37 247.009 255.99 246.889C249.17 246.829 242.35 246.889 234.68 246.889ZM215.52 125.439C211.17 127.809 206.96 129.789 203.09 132.299C200.16 134.199 197.92 133.969 194.94 132.309C176.19 121.849 157.31 111.639 138.52 101.249C135.3 99.4687 132.31 98.6187 129.43 101.499C126.57 104.349 127.2 107.379 129.12 110.569C132.81 116.699 136.31 122.949 139.91 129.139C142.44 133.499 145 137.839 148.16 143.239C150.62 136.049 158.8 131.579 151.68 123.409C165.6 130.669 178.66 137.949 191.82 145.039C194.37 146.409 197.96 148.539 199.99 147.699C207.55 144.559 214.66 140.329 222.05 136.449C219.64 132.379 217.7 129.119 215.52 125.439ZM123.02 288.499C123.05 294.609 125.08 298.809 128.92 302.109C135.1 307.439 142.51 308.269 150.09 306.859C160.44 304.939 166.46 297.369 166.05 287.669C165.68 278.889 159.4 273.389 148.46 272.099C145.66 271.769 142.64 271.619 140.22 270.389C138.17 269.349 135.64 266.929 135.54 264.999C135.43 262.899 137.37 259.899 139.29 258.639C144.01 255.549 150.37 257.569 153.58 262.379C154.15 263.229 155.1 264.329 155.94 264.389C159.18 264.619 162.46 264.489 165.64 264.489C166.46 254.419 156.05 246.099 146.02 245.899C133.92 245.659 124.25 252.639 123.09 262.879C121.93 273.069 128.73 280.679 140.24 282.069C143.37 282.449 146.64 282.409 149.57 283.389C154.57 285.049 155.43 290.319 151.58 293.589C146.67 297.769 138.99 296.449 135.53 290.989C134.85 289.919 133.53 288.729 132.39 288.599C129.46 288.269 126.47 288.499 123.02 288.499ZM90.2599 245.679C89.6399 245.769 89.0299 245.849 88.4099 245.939C79.3899 266.119 70.3798 286.299 61.2098 306.819C62.8798 307.109 63.5299 307.349 64.1699 307.309C68.6099 307.049 74.0698 309.329 75.9698 302.509C76.1098 301.999 78.2499 301.709 79.3799 301.879C87.5999 303.059 95.7899 304.419 104 305.649C108.28 306.289 112.58 306.799 118.06 307.519C108.39 286.009 99.3199 265.839 90.2599 245.679ZM230.53 142.079C232.82 138.139 234.81 135.239 236.2 132.079C236.86 130.579 237.07 128.189 236.31 126.869C225.27 107.499 214.06 88.2288 202.82 68.9788C200.32 64.6988 197.67 64.6887 195.14 68.9287C190.22 77.2187 185.45 85.6088 180.61 93.9588C176.97 100.239 173.33 106.509 169.51 113.109C173.5 115.269 176.93 117.129 180.48 119.049C181.34 117.799 181.95 117.029 182.43 116.189C186.95 108.419 191.37 100.599 195.99 92.8887C198.2 89.1887 199.78 89.2887 202.01 92.9287C203.4 95.1987 204.69 97.5288 206.03 99.8288C214.03 113.629 222.03 127.419 230.53 142.079ZM159.03 132.209C158.56 132.719 158.16 133.009 157.93 133.409C147.35 151.509 136.74 169.589 126.27 187.759C123.9 191.869 125.33 194.069 130.13 193.969C138.62 193.799 147.11 193.349 155.61 193.139C160.54 193.019 165.47 193.119 170.8 193.119C166.47 180.799 165.47 180.079 154.37 180.339C153.54 180.359 152.7 180.379 151.87 180.379C146.79 180.339 146.03 179.159 148.47 174.889C151.11 170.269 153.82 165.689 156.48 161.069C160.84 153.509 165.18 145.929 169.66 138.119C165.72 135.919 162.4 134.079 159.03 132.209ZM209.94 257.769C210.17 259.899 210.32 261.349 210.49 262.939C214.42 262.939 218.14 262.939 221.88 262.939C221.88 257.479 221.88 252.419 221.88 247.149C206.41 247.149 191.32 247.149 175.96 247.149C175.96 252.609 175.96 257.809 175.96 263.009C179.95 263.009 183.53 263.009 187.38 263.009C187.61 259.509 187.91 256.059 193.24 258.629C193.24 274.349 193.24 290.229 193.24 306.059C197.4 306.059 200.98 306.059 204.95 306.059C204.95 289.949 204.95 274.189 204.95 258.119C206.75 257.989 208.16 257.889 209.94 257.769ZM226.59 192.569C241.46 193.059 255.51 193.659 269.55 193.859C272.63 193.899 273.79 191.489 272.14 188.529C270.04 184.759 267.88 181.019 265.71 177.299C260.8 168.879 255.87 160.479 250.87 151.929C242.65 161.649 242.51 162.839 248.26 172.769C248.84 173.779 249.49 174.749 250.01 175.779C251.61 178.959 250.57 180.499 247.04 180.419C243.55 180.349 240.06 180.119 236.58 180.279C235.3 180.339 233.57 180.979 232.9 181.949C230.76 185.049 229 188.419 226.59 192.569Z" fill="black"/>
<path d="M167.49 151.397C173.3 161.377 178.72 170.677 184.13 179.987C188.06 186.747 191.91 193.567 195.93 200.277C198.22 204.087 199.87 204.167 201.98 200.537C216.53 175.507 231.01 150.427 245.5 125.357C245.72 124.987 245.72 124.487 245.93 123.547C244.25 124.247 242.95 124.797 241.11 125.567C239.08 122.167 237.01 118.697 234.72 114.857C243.84 109.857 252.47 104.857 261.4 100.487C263.2 99.6075 266.74 100.387 268.5 101.707C271.44 103.917 270.74 107.307 269.01 110.297C262.35 121.827 255.68 133.357 249 144.887C234.73 169.507 220.43 194.117 206.17 218.747C201.51 226.787 196.63 226.957 191.98 218.997C182.15 202.187 172.53 185.257 162.56 168.527C160.48 165.037 160.37 162.357 162.73 159.177C164.36 156.957 165.63 154.457 167.49 151.397Z" fill="white"/>
<path d="M338.85 276.82C338.85 281.13 339.64 285.63 338.69 289.72C336.53 298.99 329.96 304.36 320.91 306.65C306.91 310.2 292.07 302.8 289.81 289.92C288.31 281.41 288.43 272.26 289.73 263.69C291.35 253 301.9 246.06 313.75 245.97C325.71 245.88 335.96 252.61 338.45 262.96C339.52 267.4 339.14 272.18 339.43 276.81C339.24 276.81 339.04 276.82 338.85 276.82ZM328.38 277.13C328.13 277.06 327.89 276.99 327.64 276.92C327.54 274.76 327.55 272.58 327.33 270.43C326.58 263.23 320.88 258.18 313.86 258.38C306.67 258.59 301.36 263.67 300.95 271C300.73 274.82 300.76 278.67 300.96 282.49C301.27 288.52 304.67 292.79 310.02 294.28C316.1 295.97 322.17 294.47 324.97 289.35C326.94 285.72 327.3 281.23 328.38 277.13Z" fill="white"/>
<path d="M234.68 246.887C242.35 246.887 249.17 246.827 255.99 246.897C267.37 247.027 275.53 252.027 277.84 260.167C280.71 270.277 277.47 277.867 267.12 284.877C269.09 288.267 271.07 291.687 273.06 295.107C275.05 298.527 277.06 301.947 279.61 306.327C275.26 306.327 271.71 306.537 268.21 306.207C267.04 306.097 265.67 304.827 264.96 303.717C262.45 299.797 259.93 295.847 257.88 291.677C255.53 286.907 252.24 284.957 246.42 286.987C246.42 293.047 246.42 299.447 246.42 306.117C242.19 306.117 238.6 306.117 234.68 306.117C234.68 286.427 234.68 266.897 234.68 246.887ZM246.33 258.337C246.33 260.847 246.32 262.637 246.33 264.437C246.37 275.787 247.52 276.737 258.68 274.667C263.84 273.707 266.36 270.987 266.3 266.447C266.25 262.327 263.1 258.857 258.37 258.407C254.62 258.047 250.81 258.337 246.33 258.337Z" fill="white"/>
<path d="M215.52 125.438C217.7 129.118 219.63 132.378 222.03 136.428C214.64 140.308 207.529 144.538 199.969 147.678C197.949 148.518 194.35 146.388 191.8 145.018C178.63 137.928 165.57 130.648 151.66 123.388C158.78 131.558 150.6 136.028 148.14 143.218C144.98 137.828 142.42 133.478 139.89 129.118C136.29 122.928 132.789 116.678 129.099 110.548C127.179 107.358 126.56 104.328 129.41 101.478C132.29 98.6077 135.289 99.4577 138.499 101.228C157.289 111.618 176.17 121.828 194.92 132.288C197.89 133.948 200.139 134.178 203.069 132.278C206.959 129.788 211.17 127.808 215.52 125.438Z" fill="white"/>
<path d="M123.02 288.498C126.47 288.498 129.46 288.268 132.39 288.608C133.53 288.738 134.85 289.938 135.53 290.998C139 296.458 146.67 297.778 151.58 293.598C155.43 290.328 154.57 285.058 149.57 283.398C146.64 282.418 143.36 282.458 140.24 282.078C128.74 280.678 121.94 273.078 123.09 262.888C124.25 252.658 133.92 245.678 146.02 245.908C156.05 246.108 166.47 254.418 165.64 264.498C162.45 264.498 159.18 264.638 155.94 264.398C155.1 264.338 154.14 263.238 153.58 262.388C150.37 257.578 144.01 255.558 139.29 258.648C137.36 259.908 135.43 262.908 135.54 265.008C135.64 266.938 138.17 269.348 140.22 270.398C142.63 271.628 145.66 271.778 148.46 272.108C159.4 273.398 165.68 278.898 166.05 287.678C166.46 297.378 160.44 304.948 150.09 306.868C142.51 308.268 135.11 307.438 128.92 302.118C125.09 298.808 123.05 294.608 123.02 288.498Z" fill="white"/>
<path d="M90.26 245.68C99.33 265.84 108.39 286.01 118.06 307.52C112.58 306.8 108.28 306.29 104 305.65C95.79 304.42 87.6 303.06 79.38 301.88C78.25 301.72 76.11 302.01 75.97 302.51C74.07 309.33 68.61 307.05 64.17 307.31C63.54 307.35 62.89 307.11 61.21 306.82C70.38 286.3 79.39 266.12 88.41 245.94C89.02 245.85 89.64 245.76 90.26 245.68ZM89.36 271.96C86.29 278.95 83.81 284.58 81.12 290.72C87.39 291.82 92.77 292.76 99.36 293.91C95.82 286.15 92.9 279.73 89.36 271.96Z" fill="white"/>
<path d="M230.53 142.078C222.03 127.418 214.03 113.618 206.03 99.8277C204.69 97.5277 203.41 95.1977 202.01 92.9277C199.78 89.2877 198.2 89.1977 195.99 92.8877C191.37 100.598 186.95 108.418 182.43 116.188C181.94 117.028 181.34 117.798 180.48 119.048C176.93 117.128 173.5 115.268 169.51 113.108C173.34 106.508 176.98 100.238 180.61 93.9577C185.45 85.6077 190.21 77.2277 195.14 68.9277C197.66 64.6777 200.32 64.6977 202.82 68.9777C214.06 88.2277 225.27 107.508 236.31 126.868C237.06 128.188 236.86 130.578 236.2 132.078C234.81 135.248 232.82 138.138 230.53 142.078Z" fill="white"/>
<path d="M159.03 132.207C162.4 134.077 165.72 135.917 169.66 138.107C165.18 145.917 160.84 153.487 156.48 161.057C153.82 165.667 151.11 170.247 148.47 174.877C146.03 179.147 146.79 180.337 151.87 180.367C152.7 180.377 153.54 180.347 154.37 180.327C165.47 180.067 166.47 180.787 170.8 193.107C165.47 193.107 160.54 193.007 155.61 193.127C147.12 193.347 138.63 193.787 130.13 193.957C125.33 194.057 123.9 191.857 126.27 187.747C136.74 169.577 147.35 151.497 157.93 133.397C158.16 133.007 158.56 132.717 159.03 132.207Z" fill="white"/>
<path d="M209.94 257.768C208.17 257.888 206.75 257.988 204.95 258.118C204.95 274.188 204.95 289.948 204.95 306.058C200.98 306.058 197.4 306.058 193.24 306.058C193.24 290.228 193.24 274.348 193.24 258.628C187.91 256.058 187.61 259.518 187.38 263.008C183.54 263.008 179.95 263.008 175.96 263.008C175.96 257.808 175.96 252.618 175.96 247.148C191.32 247.148 206.41 247.148 221.88 247.148C221.88 252.418 221.88 257.478 221.88 262.938C218.13 262.938 214.42 262.938 210.49 262.938C210.32 261.348 210.17 259.898 209.94 257.768Z" fill="white"/>
<path d="M226.59 192.57C229.01 188.42 230.76 185.05 232.91 181.95C233.58 180.98 235.31 180.34 236.59 180.28C240.07 180.12 243.56 180.35 247.05 180.42C250.57 180.49 251.62 178.95 250.02 175.78C249.5 174.74 248.85 173.77 248.27 172.77C242.52 162.84 242.65 161.65 250.88 151.93C255.88 160.48 260.81 168.88 265.72 177.3C267.89 181.03 270.05 184.76 272.15 188.53C273.8 191.49 272.64 193.9 269.56 193.86C255.5 193.66 241.46 193.06 226.59 192.57Z" fill="white"/>
<path d="M328.38 277.13C327.3 281.23 326.94 285.73 324.96 289.34C322.16 294.46 316.08 295.97 310.01 294.27C304.66 292.78 301.26 288.51 300.95 282.48C300.75 278.66 300.72 274.81 300.94 270.99C301.35 263.66 306.67 258.58 313.85 258.37C320.87 258.16 326.57 263.22 327.32 270.42C327.54 272.57 327.54 274.74 327.63 276.91C327.89 276.98 328.13 277.05 328.38 277.13Z" fill="black"/>
<path d="M246.33 258.34C250.81 258.34 254.62 258.06 258.37 258.41C263.1 258.86 266.24 262.33 266.3 266.45C266.36 270.99 263.83 273.71 258.68 274.67C247.52 276.74 246.37 275.79 246.33 264.44C246.32 262.64 246.33 260.84 246.33 258.34Z" fill="black"/>
<path d="M89.3601 271.957C92.9001 279.727 95.8201 286.147 99.3601 293.907C92.7701 292.757 87.3901 291.817 81.1201 290.717C83.8101 284.577 86.2901 278.937 89.3601 271.957Z" fill="black"/>
</svg>
