<svg width="453" height="138" viewBox="0 0 453 138" fill="none" xmlns="http://www.w3.org/2000/svg">
<path d="M452.681 0.370039C445.381 12.97 438.811 24.3 432.231 35.63C428.741 41.64 424.911 47.48 421.821 53.69C419.721 57.91 416.871 58.92 412.441 58.92C308.861 58.81 205.281 58.84 101.691 58.84C85.5209 58.84 69.3609 58.84 53.1909 58.84C51.1509 58.84 49.1109 58.84 46.3809 58.84C47.0309 57.08 47.3109 55.88 47.8809 54.85C57.3509 37.97 66.9509 21.16 76.2609 4.19005C78.1809 0.690046 80.7709 0.33004 84.1509 0.34004C129.641 0.39004 175.141 0.380049 220.631 0.380049C294.891 0.380049 369.141 0.380039 443.401 0.370039C446.011 0.370039 448.611 0.370039 452.681 0.370039Z" fill="black"/>
<path d="M354.971 96.8692C346.451 96.8692 337.931 96.8692 327.731 96.8692C331.441 90.5092 334.191 85.4792 337.301 80.6992C337.911 79.7592 339.921 79.3492 341.291 79.3492C362.521 79.2692 383.761 79.2792 404.991 79.2992C405.521 79.2992 406.041 79.5692 407.391 79.9392C403.151 86.8292 401.321 94.7492 393.151 98.6892C381.991 104.079 371.141 110.099 360.171 115.879C358.591 116.709 357.091 117.679 355.551 118.579C355.631 119.169 355.701 119.759 355.781 120.349C364.741 120.349 373.691 120.349 384.431 120.349C380.711 126.659 378.171 131.359 375.191 135.759C374.441 136.869 372.261 137.519 370.741 137.529C350.071 137.629 329.401 137.579 308.731 137.539C308.031 137.539 307.341 137.219 305.811 136.839C310.101 129.379 311.841 121.069 320.611 117.039C330.671 112.419 340.311 106.889 350.131 101.749C351.901 100.829 353.641 99.8592 355.401 98.9192C355.251 98.2392 355.111 97.5492 354.971 96.8692Z" fill="black"/>
<path d="M254.42 79.9611C251.95 84.3911 250.1 88.471 247.5 91.981C246.58 93.231 243.83 93.5411 241.9 93.5711C231.18 93.7211 220.46 93.781 209.74 93.591C205.05 93.511 202.27 95.241 201.18 101.201C214.62 101.201 227.75 101.201 241.1 101.201C238.93 112.631 235.82 115.281 225.81 115.291C216.22 115.291 206.63 115.241 197.04 115.301C191.3 115.331 190.02 116.581 188.63 123.911C202.01 123.911 215.23 123.911 228.64 123.911C226.44 135.091 223.47 137.611 213.72 137.601C196.79 137.591 179.87 137.621 162.94 137.611C160.95 137.611 158.97 137.411 155.99 137.261C157.95 133.461 159.41 130.491 160.99 127.581C168.97 112.881 176.89 98.1411 185.12 83.5811C186.18 81.7011 188.95 79.6411 190.96 79.6111C210.89 79.3011 230.83 79.3911 250.76 79.3911C251.63 79.3811 252.5 79.6511 254.42 79.9611Z" fill="black"/>
<path d="M230.33 136.57C233.42 131.1 236.32 125.91 239.27 120.74C246.43 108.17 253.53 95.56 260.88 83.1C261.85 81.46 264.13 79.56 265.82 79.54C286.68 79.32 307.55 79.42 328.41 79.46C328.74 79.46 329.07 79.75 329.39 79.9C326.89 90.38 323.85 92.92 313.61 93.09C303.84 93.25 294.06 93.69 284.29 93.42C278.67 93.26 276.4 95.52 276.25 102.09C289.48 102.09 302.6 102.09 315.96 102.09C313.7 113.11 310.79 115.53 301.17 115.47C291.4 115.41 281.61 115.56 271.85 115.2C266.18 114.99 264.35 118.07 263.25 123.72C277.04 123.72 290.39 123.72 304.94 123.72C302.24 128.45 300.46 132.14 298.08 135.41C297.18 136.65 294.92 137.48 293.27 137.49C272.97 137.61 252.67 137.55 232.37 137.52C232.06 137.52 231.72 137.23 230.33 136.57Z" fill="black"/>
<path d="M94.6204 79.562C92.9304 98.412 91.4004 116.322 89.5604 134.192C89.4304 135.452 86.9903 137.362 85.5403 137.452C79.3603 137.802 73.1504 137.652 66.9604 137.492C65.8404 137.462 63.7804 136.582 63.7704 136.062C63.6504 130.002 59.2903 131.262 55.7303 131.232C50.8503 131.182 45.9604 131.352 41.0904 131.202C36.1004 131.052 31.3504 131.052 27.9004 135.652C27.1304 136.682 25.2704 137.362 23.8904 137.392C16.6204 137.562 9.35035 137.472 0.360352 137.472C2.62035 135.142 3.76037 133.872 5.00037 132.702C22.6004 116.072 40.1604 99.392 57.9304 82.942C59.8904 81.122 63.0804 79.842 65.7604 79.732C75.0904 79.322 84.4604 79.562 94.6204 79.562ZM51.5604 115.292C65.4504 117.312 69.4204 113.202 66.5604 100.222C61.7504 105.052 56.6604 110.172 51.5604 115.292Z" fill="black"/>
<path d="M100.45 94.5092C103.24 89.6492 105.3 85.6592 107.78 81.9292C108.56 80.7492 110.42 79.6092 111.79 79.6092C134.3 79.4692 156.81 79.5092 180.95 79.5092C177.55 85.3692 174.83 90.3092 171.8 95.0592C171.29 95.8692 169.48 96.0192 168.24 96.1592C166.57 96.3392 164.79 96.5292 163.19 96.1592C151.63 93.4792 144.9 98.2392 140.33 108.939C136.67 117.509 131.24 125.339 126.34 133.349C125.29 135.069 123.24 137.209 121.53 137.329C114.86 137.789 108.13 137.519 99.9199 137.519C107.47 123.549 114.43 110.669 121.97 96.7192C114.58 95.9592 107.94 95.2792 100.45 94.5092Z" fill="black"/>
<path d="M51.5605 115.289C56.6505 110.169 61.7505 105.049 66.5605 100.219C69.4205 113.199 65.4505 117.309 51.5605 115.289Z" fill="white"/>
</svg>
