<svg width="367" height="117" viewBox="0 0 367 117" fill="none" xmlns="http://www.w3.org/2000/svg">
<path d="M184.45 60.8906C184.45 40.8806 184.45 20.8606 184.45 0.630582C195.73 0.630582 206.71 0.630582 217.95 0.630582C217.95 38.9906 217.95 77.3206 217.95 115.981C216.72 116.041 215.49 116.161 214.27 116.161C205.11 116.171 195.95 116.071 186.79 116.221C184.32 116.261 183.05 115.471 181.85 113.291C171.46 94.5506 160.92 75.9006 150.41 57.2306C149.75 56.0606 149.03 54.9306 147.69 53.9106C147.69 74.4906 147.69 95.0806 147.69 115.921C136.29 115.921 125.32 115.921 114.09 115.921C114.09 77.4506 114.09 39.1406 114.09 0.430582C121.89 0.430582 129.51 0.400582 137.13 0.440582C141.51 0.460582 146.79 -0.889418 150.01 1.08058C153.38 3.15058 154.86 8.40058 157.02 12.3506C165.42 27.7506 173.75 43.1806 182.12 58.5906C182.59 59.4506 183.14 60.2606 183.65 61.0906C183.93 61.0206 184.19 60.9506 184.45 60.8906Z" fill="black"/>
<path d="M96.81 116.011C64.44 116.011 32.37 116.011 0 116.011C0 77.5514 0 39.2614 0 0.691406C32.14 0.691406 64.31 0.691406 96.82 0.691406C96.82 10.1714 96.82 19.7514 96.82 29.7714C76.62 29.7714 56.25 29.7714 35.58 29.7714C35.58 48.7914 35.58 67.3814 35.58 86.2714C55.94 86.2714 76.21 86.2714 96.81 86.2714C96.81 96.2614 96.81 105.961 96.81 116.011Z" fill="black"/>
<path d="M235.07 86.1505C235.07 67.5005 235.07 49.0105 235.07 30.2305C278.76 30.2305 322.33 30.2305 366.23 30.2305C366.23 48.7005 366.23 67.2905 366.23 86.1505C322.62 86.1505 278.96 86.1505 235.07 86.1505Z" fill="black"/>
<path d="M94.8899 71.9206C79.7399 71.9206 64.9699 71.9206 49.9199 71.9206C49.9199 62.8706 49.9199 53.9206 49.9199 44.6406C64.7499 44.6406 79.6899 44.6406 94.8899 44.6406C94.8899 53.6506 94.8899 62.6106 94.8899 71.9206Z" fill="black"/>
</svg>
