<svg width="238" height="417" viewBox="0 0 238 417" fill="none" xmlns="http://www.w3.org/2000/svg">
<path d="M237.94 416.93C215.3 416.93 193.68 416.93 171.16 416.93C171.16 278.09 171.16 139.41 171.16 0C178.86 0 186.81 0 195.99 0C195.99 17.16 195.99 34.35 195.99 52.63C210.49 52.63 223.82 52.63 237.86 52.63C237.86 60.99 237.86 68.28 237.86 77.16C224.44 77.16 210.83 77.16 196.73 77.16C196.73 183.04 196.73 287.34 196.73 392.45C201.79 392.45 206.53 392.45 212.4 392.45C212.4 294.31 212.4 196.45 212.4 97.74C221.42 97.74 229.34 97.74 237.94 97.74C237.94 203.85 237.94 309.87 237.94 416.93Z" fill="black"/>
<path d="M42.39 77.9386C36.1 77.9386 31.3 77.9386 25.53 77.9386C25.53 190.889 25.53 303.389 25.53 416.539C16.61 416.539 8.66 416.539 0.01 416.539C0 295.619 0 174.969 0 53.5586C22.27 53.5586 44.41 53.5586 67.19 53.5586C67.19 174.639 67.19 295.259 67.19 416.539C59.21 416.539 51.55 416.539 42.39 416.539C42.39 303.959 42.39 191.239 42.39 77.9386Z" fill="black"/>
<path d="M128.2 77.9083C121.61 77.9083 116.78 77.9083 111.33 77.9083C111.33 182.828 111.33 287.498 111.33 392.718C116.62 392.718 121.41 392.718 127.55 392.718C127.55 343.408 127.55 294.598 127.55 245.238C136.53 245.238 144.18 245.238 152.57 245.238C152.57 302.218 152.57 358.908 152.57 416.398C130.52 416.398 108.39 416.398 85.6201 416.398C85.6201 295.568 85.6201 174.888 85.6201 53.4883C107.66 53.4883 129.54 53.4883 152.37 53.4883C152.37 111.008 152.37 168.658 152.37 226.918C144.66 226.918 137 226.918 128.2 226.918C128.2 177.738 128.2 128.528 128.2 77.9083Z" fill="black"/>
</svg>
