<svg width="337" height="373" viewBox="0 0 337 373" fill="none" xmlns="http://www.w3.org/2000/svg">
<path d="M297.97 0C298.14 1.05 298.32 1.73 298.35 2.4C298.73 13.54 298.3 24.62 296 35.58C293.76 46.24 290.3 56.43 284.72 65.82C281.67 70.95 277.88 75.54 273.71 79.81C269.76 83.86 265.21 87.16 260.39 90.08C252.61 94.79 244.11 97.66 235.22 99.33C228.32 100.62 221.33 101.26 214.28 101.3C208.97 101.33 203.67 101.69 198.36 101.73C195.27 101.76 192.17 101.47 189.08 101.31C187.42 101.22 186.38 102.01 185.72 103.48C183.04 109.47 180.3 115.43 177.65 121.43C173.43 131 169.21 140.58 165.08 150.19C161.79 157.84 158.62 165.53 155.4 173.21C152.07 181.14 148.89 189.12 146.74 197.47C145.02 204.12 143 210.72 141.75 217.46C139.73 228.39 138.63 239.43 139.45 250.59C139.98 257.79 141.88 264.55 146.11 270.41C149.51 275.11 154.22 278.26 159.72 280.27C163.22 281.56 166.83 281.98 170.28 280.93C173.01 280.1 175.44 278.25 177.98 276.81C178.69 276.4 179.29 275.81 179.95 275.32C181.61 274.09 181.73 273.31 180.69 271.41C178.75 267.88 176.76 264.38 174.97 260.77C172.58 255.96 171.1 250.81 170.02 245.56C168.47 238.08 167.26 230.53 167.63 222.86C167.81 219.06 168.41 215.29 168.84 211.51C169.43 206.3 171.21 201.45 173.32 196.69C175.51 191.75 178.48 187.28 182.41 183.6C185.08 181.09 188.02 178.78 191.13 176.85C196.38 173.59 202.23 172.05 208.44 171.93C215.03 171.8 221.28 173.07 227.13 176.15C231.82 178.62 235.16 182.32 237.57 187.07C241.76 195.34 241.86 204.18 241 212.98C240 223.27 236.5 232.95 231.9 242.18C228.72 248.55 225.07 254.66 220.56 260.19C217.92 263.43 215.05 266.5 212.25 269.61C210.7 271.32 210.65 271.64 212.33 273.25C219.39 280.02 227.54 281.02 236.6 276.77C243.26 273.65 248.65 268.9 253.59 263.52C260.1 256.44 264.52 248.12 267.78 239.23C270.72 231.21 272.82 222.9 273.31 214.29C273.53 210.43 273.89 206.57 273.91 202.71C273.94 196.61 273.27 190.54 271.73 184.65C269.98 177.99 267.88 171.37 263.93 165.64C261.47 162.07 258.5 158.84 255.75 155.48C253.08 152.22 252.99 146.56 255.32 143.05C259.44 136.85 265.24 132.94 272.14 130.57C276.84 128.96 281.68 128.49 286.45 130.27C290.84 131.91 294.37 134.8 297.23 138.51C299.45 141.4 301.47 144.49 303.98 147.1C305.65 148.82 307.93 150.06 310.14 151.1C312.04 151.99 313.92 151.34 315.32 149.64C316.64 148.04 316.95 146.31 316.15 144.38C314.95 141.47 312.52 139.88 309.9 138.5C309.51 138.29 309.13 138.08 308.76 137.83C308.64 137.75 308.57 137.57 308.38 137.29C310.3 135.22 312.55 133.59 315.18 132.57C324 129.17 332.79 133.32 335.72 142.32C337.11 146.6 336.71 150.96 335.54 155.22C333.58 162.4 329.27 167.97 323.05 171.93C320.39 173.62 317.37 174.8 314.4 175.91C311.98 176.82 311.34 177.6 311.88 180.18C312.03 180.88 312.12 181.61 312.1 182.32C311.89 189 312.02 195.72 311.32 202.35C310.69 208.31 309.5 214.28 307.89 220.06C305.84 227.41 303.26 234.62 300.64 241.79C297.59 250.15 293.56 258.08 289.06 265.75C283.17 275.78 276 284.76 266.92 292.12C261.13 296.81 254.74 300.42 247.71 302.91C240.93 305.3 233.97 306.18 226.84 305.4C223.01 304.98 219.05 304.76 215.44 303.56C209.05 301.42 202.97 298.47 198.28 293.33C197.16 292.11 195.98 290.95 194.81 289.77C193.05 288.01 192.48 288.05 190.47 289.61C187.2 292.14 184.03 294.85 180.52 297.02C170.37 303.29 159.49 306.72 147.4 304.4C141.45 303.26 135.63 301.66 129.99 299.37C124.42 297.11 119.32 294.15 114.82 290.16C109.62 285.56 105.48 280.19 102.99 273.65C101.74 270.36 100.33 267.12 99.3699 263.75C98.4499 260.53 97.6399 257.2 97.4299 253.88C96.9499 246.38 96.5399 238.85 96.7399 231.35C96.9199 224.64 97.9299 217.94 98.6199 211.24C98.8699 208.83 99.1999 206.42 99.6299 204.03C100.25 200.62 101.01 197.24 101.71 193.85C102.51 189.96 103.28 186.06 104.12 182.18C104.87 178.68 105.71 175.2 106.49 171.7C107.26 168.26 107.93 164.8 108.78 161.38C110.71 153.56 112.65 145.74 114.71 137.95C116.71 130.4 118.84 122.88 120.94 115.36C122.33 110.37 123.76 105.38 125.18 100.4C125.7 98.56 125.39 97.98 123.5 97.98C112.11 98 100.69 97.37 89.3999 99.37C83.5999 100.4 77.7599 101.36 72.1099 102.96C64.6199 105.07 57.8499 108.76 51.7999 113.76C43.5399 120.6 37.5499 129.06 33.6199 138.98C30.0299 148.07 28.9599 157.56 30.5999 167.13C32.5199 178.4 38.2399 187.49 48.0299 193.73C53.2499 197.06 58.9499 199.18 65.0499 200.23C65.4799 200.3 65.9099 200.44 66.3199 200.6C66.6699 200.73 66.9999 200.93 67.6499 201.25C67.0699 201.92 66.6699 202.54 66.1299 202.99C61.4499 206.94 56.7599 210.89 52.0399 214.79C46.5999 219.29 41.1199 223.73 35.6799 228.22C34.3199 229.34 32.9899 230.5 31.6899 231.69C30.4899 232.79 29.1299 233.18 27.5599 232.79C19.0399 230.65 12.3899 225.87 7.61994 218.5C4.33994 213.44 2.35994 207.94 1.21994 201.97C-0.410055 193.42 -0.290055 184.89 0.789945 176.39C1.60994 170.01 2.95994 163.66 4.53994 157.42C5.55994 153.4 7.50994 149.62 8.91994 145.68C11.1699 139.4 14.5299 133.7 18.0099 128.07C24.7599 117.16 33.0499 107.47 42.3599 98.72C48.2199 93.22 54.3799 87.97 60.8399 83.19C67.9999 77.89 75.4799 72.99 83.5399 69.07C88.2399 66.79 92.7399 64.04 97.5399 62.01C103.42 59.53 109.5 57.53 115.54 55.45C118.51 54.43 121.56 53.63 124.62 52.87C127.56 52.14 130.54 51.52 133.52 51.01C139.01 50.06 144.5 49.12 150.02 48.38C155.88 47.59 161.77 47.06 167.64 46.38C169.72 46.14 171.79 45.73 173.87 45.48C182.59 44.43 191.33 43.54 200.03 42.35C206.96 41.4 213.85 40.15 220.75 38.94C229.23 37.45 237.54 35.32 245.76 32.75C254.73 29.95 263.39 26.43 271.53 21.75C277.64 18.23 283.5 14.29 288.51 9.24C291.11 6.62 293.73 4 296.34 1.39C296.79 1 297.25 0.64 297.97 0ZM213.23 214.74C212.73 213.27 212.37 211.88 211.8 210.59C210.46 207.57 206.26 205.28 203.63 206.05C201.02 206.82 199.19 208.65 197.65 210.76C195.95 213.09 195.36 215.77 195.11 218.65C194.27 228.36 195.25 237.83 198.36 247.07C198.48 247.43 198.86 247.71 199.12 248.03C199.4 247.79 199.8 247.61 199.95 247.31C202.23 242.85 204.56 238.42 206.69 233.9C207.99 231.13 209.08 228.24 210.06 225.33C211.25 221.85 212.19 218.29 213.23 214.74Z" fill="black"/>
<path d="M148.55 331.04C153.32 331.04 153.4 331.02 154.58 335.62C155.47 339.09 156.1 342.63 156.83 346.14C157.01 347.03 157.08 347.91 158.33 347.94C159.6 347.97 159.66 347.08 159.86 346.19C160.83 341.78 161.85 337.37 162.8 332.96C163.08 331.67 163.78 331.04 165.08 331.03C166.63 331.01 168.18 330.97 169.73 330.95C171.35 330.93 172.37 331.8 172.69 333.3C173.51 337.23 174.22 341.19 175 345.14C175.21 346.22 175.39 347.33 175.77 348.36C175.94 348.82 176.49 349.3 176.96 349.42C177.19 349.48 177.84 348.82 177.95 348.4C178.68 345.51 179.3 342.59 180.01 339.69C180.65 337.09 181.29 334.48 182.1 331.93C182.24 331.48 183.21 331.04 183.81 331.02C186.18 330.93 188.57 330.98 190.94 331.05C192.64 331.1 193.02 331.54 192.61 333.25C191.82 336.57 190.91 339.87 190.06 343.18C189.07 347.08 188.11 350.98 187.12 354.88C185.75 360.28 184.35 365.67 182.99 371.07C182.73 372.1 182.21 372.55 181.13 372.51C179.08 372.44 177.04 372.43 174.99 372.48C173.74 372.51 173.07 371.97 172.75 370.78C171.61 366.58 170.39 362.41 169.26 358.21C169 357.26 169.07 356.22 168.79 355.28C168.65 354.82 168.11 354.28 167.65 354.18C167.33 354.11 166.6 354.63 166.49 355.01C165.96 356.85 165.55 358.74 165.15 360.62C164.41 364.01 163.69 367.4 162.98 370.8C162.74 371.98 161.99 372.47 160.86 372.47C158.54 372.48 156.21 372.43 153.89 372.47C152.4 372.5 151.82 371.53 151.53 370.37C150.62 366.68 149.82 362.96 148.96 359.26C148.03 355.23 147.14 351.19 146.15 347.17C145.03 342.62 143.83 338.09 142.65 333.55C142.22 331.9 142.57 331.24 144.27 331.09C145.67 330.94 147.11 331.04 148.55 331.04Z" fill="black"/>
<path d="M239.9 372.45C233.93 372.45 228.7 370.45 224.79 366.02C219.49 360.01 217.88 353.07 220.47 345.23C222.21 339.96 225.21 335.78 230.17 333.43C237.41 329.99 244.74 329.96 251.61 334.51C255.76 337.26 258.69 341.09 260.17 345.92C260.66 347.53 260.15 348.41 258.45 348.52C255.8 348.68 253.14 348.8 250.5 348.65C249.75 348.61 248.81 347.69 248.39 346.94C247.06 344.55 245.03 342.8 242.63 342.01C240.96 341.46 238.8 341.91 236.99 342.39C234.59 343.03 232.98 344.81 231.99 347.12C230.04 351.68 230.89 359.18 237.19 361.26C240.27 362.28 244.64 362.07 247.24 357.98C248.77 355.57 250.56 354.78 253.27 355.13C255.01 355.35 256.8 355.17 258.57 355.1C259.98 355.04 260.53 355.7 260.29 357.01C260.15 357.76 259.88 358.49 259.59 359.2C256.89 365.93 252 370.21 244.99 371.98C243.36 372.38 241.6 372.3 239.9 372.45Z" fill="black"/>
<path d="M279.77 331.03C282.76 331.03 285.74 331.09 288.72 331.01C290.4 330.97 291.39 331.54 291.42 333.3C291.46 335.34 291.54 337.39 291.46 339.43C291.41 340.87 290.54 341.58 289.05 341.55C286.95 341.51 284.85 341.46 282.75 341.57C281.79 341.62 280.66 341.78 279.97 342.34C279.46 342.75 279.14 344.1 279.43 344.65C279.81 345.36 280.86 346.05 281.68 346.12C284.04 346.32 286.43 346.18 288.8 346.21C291.06 346.23 291.24 346.33 291.42 348.63C291.56 350.5 291.58 352.39 291.45 354.26C291.29 356.54 290.74 356.91 288.4 356.94C286.08 356.97 283.76 356.99 281.44 357.12C279.69 357.21 279.38 357.71 279.38 359.79C279.38 361.22 280.03 361.91 281.5 361.89C283.88 361.85 286.25 361.84 288.63 361.87C290.82 361.9 291.28 362.24 291.42 364.45C291.54 366.42 291.33 368.42 291.34 370.4C291.35 372.09 290.45 372.55 288.92 372.54C283.89 372.5 278.86 372.54 273.83 372.54C272.61 372.54 271.4 372.49 270.18 372.51C268.63 372.54 268.08 371.82 268.09 370.27C268.14 362.75 268.11 355.23 268.11 347.71C268.11 342.9 268.1 338.09 268.11 333.28C268.11 331.37 268.37 331.08 270.32 331.06C273.46 331 276.61 331.03 279.77 331.03Z" fill="black"/>
<path d="M115.8 357.18C115.8 352.81 115.82 348.44 115.79 344.07C115.78 341.98 115.48 341.7 113.37 341.63C112.32 341.6 111.27 341.61 110.22 341.62C108.92 341.64 108.23 340.92 108.19 339.71C108.11 337.39 108.09 335.06 108.14 332.74C108.17 331.37 109.16 331.05 110.33 331.05C114.26 331.04 118.18 331.02 122.11 331.01C125.37 331 128.64 330.99 131.9 331C134.47 331.01 134.68 331.22 134.67 333.71C134.67 335.59 134.63 337.47 134.68 339.35C134.72 340.84 134.15 341.65 132.57 341.63C131.58 341.62 130.58 341.67 129.59 341.74C127.47 341.88 127.23 342.13 127.23 344.24C127.22 351.49 127.24 358.73 127.24 365.98C127.24 367.53 127.21 369.08 127.18 370.62C127.15 371.81 126.56 372.46 125.33 372.46C122.79 372.46 120.24 372.47 117.7 372.5C116.3 372.51 115.76 371.87 115.78 370.46C115.83 366.03 115.8 361.6 115.8 357.18Z" fill="black"/>
<path d="M200.4 351.86C200.4 345.61 200.42 339.36 200.38 333.11C200.37 331.69 200.94 331.07 202.32 331.06C204.7 331.05 207.07 331.02 209.45 331.02C211.55 331.02 211.82 331.29 211.82 333.44C211.82 343.84 211.8 354.23 211.8 364.63C211.8 366.56 211.83 368.5 211.86 370.43C211.88 371.88 211.2 372.53 209.72 372.49C207.23 372.43 204.74 372.48 202.26 372.45C201.26 372.44 200.39 372.28 200.39 370.92C200.42 364.57 200.4 358.21 200.4 351.86Z" fill="black"/>
<path d="M213.23 214.742C212.18 218.292 211.24 221.852 210.07 225.332C209.1 228.242 208.01 231.132 206.7 233.902C204.57 238.432 202.23 242.862 199.96 247.312C199.81 247.612 199.41 247.792 199.13 248.032C198.87 247.712 198.49 247.432 198.37 247.072C195.26 237.832 194.28 228.362 195.12 218.652C195.37 215.782 195.95 213.102 197.66 210.762C199.2 208.652 201.03 206.832 203.64 206.052C206.26 205.272 210.46 207.572 211.81 210.592C212.38 211.882 212.73 213.272 213.23 214.742Z" fill="white"/>
</svg>
