<svg width="504" height="256" viewBox="0 0 504 256" fill="none" xmlns="http://www.w3.org/2000/svg">
<path d="M353.85 107.68C353.85 98.5501 353.85 89.7201 353.85 80.5801C354.74 80.5801 355.55 80.5801 356.35 80.5801C372.39 80.5801 388.44 80.5801 404.48 80.5801C407.61 80.5801 407.63 80.5801 407.63 77.3501C407.64 61.3101 407.63 45.2601 407.63 29.2201C407.63 26.4801 407.63 26.4701 410.39 26.4701C417.71 26.4701 425.04 26.5201 432.36 26.4301C434.17 26.4101 434.57 27.0701 434.56 28.7501C434.5 45.2101 434.54 61.6701 434.47 78.1301C434.46 80.1001 435.14 80.6101 437.02 80.6001C453.27 80.5401 469.53 80.6001 485.78 80.5201C487.73 80.5101 488.44 80.9201 488.4 83.0201C488.28 90.4101 488.28 97.8101 488.4 105.2C488.44 107.3 487.72 107.72 485.78 107.71C469.67 107.64 453.56 107.67 437.44 107.68C434.54 107.68 434.52 107.69 434.52 110.53C434.51 126.5 434.51 142.48 434.5 158.45C434.5 161.69 434.49 161.71 431.32 161.72C424.27 161.73 417.23 161.65 410.18 161.77C408.12 161.8 407.57 161.1 407.58 159.13C407.64 142.95 407.62 126.76 407.61 110.58C407.61 107.7 407.6 107.69 404.74 107.69C388.77 107.68 372.8 107.68 356.82 107.68C355.89 107.68 354.94 107.68 353.85 107.68Z" fill="black"/>
<path d="M12.7001 107.681C12.7001 103.491 12.7001 99.6612 12.7001 95.8412C12.7001 91.5112 12.8002 87.1912 12.6502 82.8712C12.5902 80.9612 13.2602 80.5412 15.0402 80.5512C30.8702 80.6212 46.7102 80.5912 62.5402 80.6112C67.3602 80.6112 66.5402 80.5012 66.5502 76.7012C66.5702 60.8712 66.5801 45.0412 66.5001 29.2012C66.4901 27.1412 66.9902 26.3912 69.1702 26.4312C76.4202 26.5612 83.6802 26.5512 90.9302 26.4312C93.0002 26.4012 93.5001 27.1312 93.4901 29.0712C93.4301 45.1812 93.4501 61.2912 93.4401 77.4112C93.4401 80.5812 93.4301 80.5912 96.7201 80.5912C112.69 80.5912 128.67 80.5812 144.64 80.5812C147.34 80.5812 147.34 80.5812 147.35 83.3512C147.35 90.5312 147.36 97.7212 147.35 104.901C147.35 107.671 147.34 107.681 144.66 107.681C128.55 107.681 112.43 107.681 96.3201 107.691C93.4501 107.691 93.4501 107.701 93.4501 110.571C93.4501 126.681 93.4501 142.801 93.4501 158.911C93.4501 161.691 93.4402 161.721 90.6702 161.721C83.4802 161.741 76.3001 161.661 69.1101 161.761C67.0801 161.791 66.5001 161.081 66.5101 159.091C66.5801 142.911 66.5502 126.721 66.5502 110.541C66.5502 107.701 66.5401 107.691 63.6301 107.691C47.5201 107.681 31.4102 107.681 15.3002 107.681C14.5502 107.681 13.8001 107.681 12.7001 107.681Z" fill="black"/>
<path d="M237.05 80.6498C246 80.6498 254.95 80.6498 263.9 80.6498L263.84 80.5898C263.89 88.8198 264.01 97.0398 263.96 105.27C263.95 107.22 264.49 107.7 266.43 107.67C273.82 107.55 281.22 107.69 288.61 107.61C290.47 107.59 290.99 108.19 290.97 110C290.88 117.53 290.97 125.06 290.89 132.6C290.87 134.16 291.29 134.66 292.87 134.64C300.05 134.57 307.24 134.62 314.42 134.62C318.54 134.62 317.84 134.62 317.86 138.16C317.89 145.27 317.82 152.39 317.9 159.5C317.92 161.26 317.32 161.77 315.62 161.76C308.16 161.69 300.7 161.68 293.23 161.76C291.42 161.78 290.8 161.23 290.82 159.37C290.91 151.84 290.81 144.31 290.89 136.78C290.91 135.13 290.38 134.62 288.75 134.63C281.57 134.7 274.38 134.66 267.2 134.66C263.95 134.66 263.94 134.66 263.94 131.5C263.94 124.39 263.89 117.27 263.98 110.16C264 108.32 263.58 107.6 261.56 107.63C254.17 107.75 246.77 107.67 239.38 107.69C238.62 107.69 237.86 107.8 237.1 107.87L237.16 107.93C237.14 98.8198 237.13 89.7098 237.11 80.5998L237.05 80.6498Z" fill="black"/>
<path d="M263.9 80.6516C263.91 72.3516 263.97 64.0616 263.91 55.7616C263.9 54.0416 264.44 53.4616 266.18 53.4716C273.71 53.5416 281.24 53.4516 288.77 53.5216C290.4 53.5316 290.93 53.0516 290.91 51.3816C290.83 43.9216 290.87 36.4616 290.87 29.0016C290.87 28.2516 290.87 27.5016 290.87 26.6416C291.65 26.5616 292.19 26.4716 292.73 26.4716C300.4 26.4616 308.07 26.4916 315.73 26.4416C317.3 26.4316 317.93 26.8116 317.91 28.5416C317.82 36.2116 317.83 43.8816 317.91 51.5516C317.93 53.1416 317.4 53.5716 315.86 53.5616C308.4 53.5016 300.94 53.5316 293.48 53.5316C292.73 53.5316 291.98 53.5316 290.9 53.5316C290.9 62.6116 290.9 71.4916 290.9 80.5916C281.67 80.5916 272.76 80.5916 263.85 80.5916C263.84 80.6016 263.9 80.6516 263.9 80.6516Z" fill="black"/>
<path d="M237.11 80.5897C228.88 80.5897 220.65 80.5597 212.42 80.6397C210.67 80.6597 210.15 80.0797 210.17 78.3697C210.24 70.8397 210.15 63.3097 210.23 55.7797C210.25 54.0597 209.74 53.4797 207.99 53.4997C200.46 53.5797 192.93 53.4897 185.4 53.5697C183.64 53.5897 183.14 53.0097 183.16 51.2997C183.23 43.7697 183.23 36.2397 183.15 28.7097C183.13 26.9797 183.68 26.4297 185.42 26.4497C192.95 26.5297 200.48 26.5297 208.01 26.4497C209.79 26.4297 210.28 27.1097 210.27 28.7697C210.21 36.0897 210.24 43.4097 210.24 50.7297C210.24 53.5297 210.24 53.5197 213.13 53.5197C220.45 53.5097 227.77 53.5397 235.1 53.4997C236.45 53.4897 237.15 53.7997 237.13 55.3497C237.06 63.7897 237.07 72.2297 237.05 80.6597C237.05 80.6497 237.11 80.5897 237.11 80.5897Z" fill="black"/>
<path d="M210.27 134.609C210.26 142.769 210.19 150.929 210.27 159.079C210.29 161.019 209.82 161.789 207.73 161.759C200.27 161.649 192.81 161.669 185.35 161.729C183.73 161.739 183.15 161.269 183.16 159.599C183.23 151.929 183.2 144.259 183.16 136.589C183.15 135.249 183.46 134.539 185.02 134.559C193.46 134.639 201.89 134.639 210.33 134.659C210.33 134.669 210.27 134.609 210.27 134.609Z" fill="black"/>
<path d="M237.1 107.86C237.11 115.94 237.07 124.01 237.16 132.09C237.18 134.1 236.5 134.72 234.5 134.69C226.43 134.58 218.35 134.62 210.27 134.61L210.33 134.67C210.29 126.17 210.23 117.67 210.26 109.17C210.26 108.67 210.92 107.75 211.27 107.75C219.9 107.75 228.53 107.85 237.16 107.93C237.16 107.92 237.1 107.86 237.1 107.86Z" fill="black"/>
<path d="M332.33 221.68C332.33 224.26 332.75 226.92 332.24 229.39C331.09 235.01 325.311 238.02 319.521 236.37C314.691 235 312.35 232 312.34 226.68C312.34 224.66 311.72 223.97 309.73 224.06C306.88 224.19 304.011 224.14 301.151 224.08C299.881 224.05 299.401 224.54 299.421 225.79C299.461 228.65 299.35 231.51 299.46 234.37C299.53 236.24 298.381 236.13 297.151 236.16C295.871 236.19 294.79 236.16 294.85 234.35C294.94 231.63 294.81 228.91 294.88 226.19C294.92 224.68 294.39 224.04 292.82 224.09C290.31 224.17 287.801 224.04 285.291 224.12C283.491 224.18 283.49 223.07 283.48 221.8C283.48 220.52 283.511 219.41 285.281 219.46C287.651 219.53 290.031 219.37 292.391 219.51C294.361 219.62 294.97 218.83 294.88 216.94C294.76 214.37 294.94 211.78 294.83 209.2C294.74 207.24 295.941 207.35 297.271 207.32C298.671 207.28 299.51 207.55 299.45 209.25C299.34 212.04 299.451 214.83 299.411 217.62C299.391 218.78 299.691 219.5 301.021 219.49C304.301 219.46 307.58 219.53 310.85 219.41C311.34 219.39 311.92 218.62 312.24 218.08C312.45 217.72 312.261 217.13 312.271 216.64C312.381 211.96 314.33 208.87 317.99 207.54C322.47 205.92 327.751 206.83 330.311 210.14C331.471 211.64 332.071 213.74 332.421 215.66C332.771 217.62 332.5 219.69 332.5 221.71C332.45 221.68 332.39 221.68 332.33 221.68ZM328.01 221.73C328 221.73 328 221.73 327.99 221.73C327.99 219.92 328.06 218.1 327.98 216.29C327.84 213.06 325.85 211.31 322.49 211.33C318.74 211.36 317.02 212.87 316.98 216.31C316.93 219.79 316.94 223.28 316.97 226.77C317 230.36 318.8 232.09 322.44 232.14C325.88 232.18 327.92 230.23 328.01 226.75C328.05 225.08 328.01 223.4 328.01 221.73Z" fill="black"/>
<path d="M79.3998 221.81C79.3998 223.55 79.3598 225.3 79.4098 227.04C79.6298 234.75 72.4398 237.96 66.3498 236.27C61.5398 234.93 59.6298 232.34 59.3798 227.38C59.2198 224.13 59.8599 224.03 55.8099 224.08C53.3699 224.11 50.9198 224.21 48.4898 224.07C46.6698 223.97 46.2298 224.7 46.2998 226.37C46.4098 229.08 46.2598 231.81 46.3398 234.52C46.3898 236.05 45.5998 236.29 44.3898 236.15C43.2698 236.02 41.7498 236.65 41.8298 234.49C41.9298 231.64 41.8098 228.77 41.8598 225.92C41.8898 224.57 41.3798 224.04 40.0198 224.07C37.4398 224.13 34.8598 224.03 32.2798 224.1C30.7298 224.14 30.3797 223.34 30.4497 222C30.5197 220.71 30.3797 219.41 32.3197 219.46C34.6897 219.52 37.0599 219.39 39.4299 219.48C41.1899 219.54 41.9698 218.98 41.8698 217.09C41.7398 214.59 41.9299 212.07 41.8099 209.56C41.7299 207.84 42.2998 207.24 44.0498 207.27C45.6698 207.3 46.4598 207.61 46.3598 209.46C46.2098 212.17 46.3699 214.9 46.3099 217.61C46.2799 218.97 46.8398 219.51 48.1398 219.49C51.2098 219.45 54.2698 219.4 57.3398 219.45C58.9098 219.47 59.3698 218.76 59.3798 217.29C59.3898 215.77 59.3998 214.17 59.8598 212.75C61.2198 208.54 65.9698 206.07 70.8598 206.81C76.4798 207.67 79.2998 210.89 79.3798 216.58C79.4198 218.33 79.3998 220.07 79.3998 221.81ZM63.8898 221.49H63.8798C63.8798 223.44 63.8098 225.39 63.8998 227.34C64.0298 230.43 66.1099 232.14 69.5599 232.12C72.7499 232.1 74.8598 230.24 74.9098 227.23C74.9798 223.47 74.9798 219.71 74.8898 215.95C74.8198 212.99 72.7699 211.37 69.3099 211.34C65.9999 211.31 64.0498 212.89 63.9098 215.85C63.8098 217.73 63.8898 219.61 63.8898 221.49Z" fill="black"/>
<path d="M217.76 223.609C216.48 226.829 215.17 230.029 213.94 233.259C212.98 235.789 210.16 237.149 207.76 236.019C207.35 235.829 207.01 235.029 207.01 234.509C206.97 226.009 207 217.499 206.96 208.999C206.95 206.919 208.39 207.399 209.57 207.309C210.9 207.199 211.64 207.569 211.62 209.139C211.55 213.879 211.61 218.619 211.61 223.359C211.61 224.099 211.61 224.829 211.61 225.569C211.83 225.619 212.05 225.669 212.26 225.719C213.15 223.469 214.13 221.249 214.9 218.959C215.43 217.409 216.27 216.869 217.93 216.829C219.78 216.779 220.69 217.349 221.24 219.129C221.92 221.339 222.93 223.459 223.8 225.619C224.05 225.589 224.31 225.549 224.56 225.519C224.56 223.699 224.56 221.879 224.56 220.059C224.55 216.509 224.63 212.949 224.49 209.399C224.42 207.449 225.43 207.299 226.95 207.289C228.49 207.279 229.2 207.649 229.18 209.389C229.1 217.609 229.1 225.839 229.19 234.059C229.21 235.809 228.51 236.159 226.97 236.159C223.18 236.179 223.24 236.209 221.94 232.739C220.79 229.649 219.51 226.619 218.28 223.559C218.12 223.579 217.94 223.589 217.76 223.609Z" fill="black"/>
<path d="M101.18 217.501C100.23 219.861 99.1396 222.171 98.3596 224.591C97.8196 226.291 96.8196 226.561 95.2496 226.571C93.6296 226.591 92.6896 226.161 92.1496 224.531C91.3596 222.121 90.3296 219.801 88.9096 217.501C88.8696 218.221 88.7996 218.931 88.7996 219.651C88.7896 224.531 88.7196 229.411 88.8396 234.291C88.8896 236.281 87.7595 236.131 86.4495 236.161C85.1395 236.191 84.2196 236.151 84.2396 234.331C84.3296 225.971 84.2996 217.601 84.2496 209.241C84.2396 207.791 84.7395 207.321 86.1895 207.311C89.9695 207.281 89.9796 207.211 91.3996 210.761C92.5796 213.731 93.7395 216.711 95.0695 220.131C95.5595 219.381 95.9496 218.961 96.1496 218.461C97.4196 215.291 98.6296 212.111 99.8896 208.941C100.46 207.511 105.12 206.551 106.06 207.691C106.33 208.011 106.34 208.601 106.34 209.071C106.36 217.441 106.31 225.801 106.38 234.171C106.4 235.981 105.52 236.191 104.06 236.191C102.61 236.191 101.75 236.041 101.79 234.181C101.91 228.691 101.83 223.201 101.83 217.711C101.62 217.621 101.4 217.561 101.18 217.501Z" fill="black"/>
<path d="M470.46 235.789C466.04 236.559 465.91 236.509 464.46 233.089C463.62 231.099 462.87 229.079 462.04 227.089C461.46 225.699 459.12 224.939 456.99 225.719C456.45 225.919 456.12 227.229 456.07 228.049C455.94 230.129 455.93 232.229 456.05 234.309C456.15 236.119 455.09 236.149 453.79 236.129C452.58 236.109 451.39 236.309 451.4 234.439C451.44 225.939 451.43 217.439 451.42 208.949C451.42 207.809 451.87 207.299 453.03 207.309C456.16 207.349 459.32 207.109 462.42 207.439C465.95 207.819 468.41 209.969 469.59 213.349C470.82 216.879 470.18 220.179 467.53 222.789C466.25 224.049 466.09 225.039 466.76 226.589C468.06 229.569 469.19 232.609 470.46 235.789ZM456.04 216.469C456.04 221.379 456.45 221.719 461.38 220.929C461.45 220.919 461.52 220.909 461.58 220.889C464 220.429 465.7 218.509 465.61 216.339C465.51 213.979 463.69 212.099 461.23 211.819C456.12 211.229 456.04 211.309 456.04 216.469Z" fill="black"/>
<path d="M154.97 235.54C151.93 236.91 150.4 236.35 149.31 233.64C148.43 231.44 147.56 229.24 146.65 227.05C145.61 224.54 143.41 225.77 141.72 225.72C140.04 225.66 140.7 227.23 140.66 228.13C140.58 230.22 140.57 232.31 140.67 234.4C140.77 236.45 139.35 236.11 138.14 236.18C136.88 236.25 135.98 236.05 135.99 234.42C136.03 225.99 136.02 217.55 135.99 209.12C135.98 207.75 136.56 207.28 137.87 207.31C140.52 207.37 143.17 207.31 145.81 207.36C149.9 207.43 152.68 209.53 154.11 213.25C155.45 216.73 154.84 220.06 152.19 222.71C150.88 224.02 150.66 225.02 151.41 226.68C152.73 229.51 153.76 232.47 154.97 235.54ZM140.65 216.29C140.65 221.35 141.04 221.7 145.84 220.98C148.56 220.57 150.41 218.59 150.22 216.28C150.01 213.71 148.08 211.83 145.34 211.82C139.66 211.79 140.78 211.09 140.65 216.29Z" fill="black"/>
<path d="M337.31 221.581C337.31 219.771 337.23 217.951 337.32 216.151C337.66 209.471 342.76 205.611 349.36 206.911C353.06 207.641 355.77 209.451 357 213.181C357.4 214.401 357.07 214.891 355.85 214.941C354.23 215.001 352.84 215.061 351.83 213.201C350.79 211.291 347.42 210.891 344.52 211.861C342.33 212.591 341.91 214.371 341.9 216.361C341.89 219.981 341.84 223.611 341.93 227.231C342.01 230.511 343.81 232.061 347.39 232.141C350.58 232.211 352.66 230.431 352.93 227.401C353.21 224.221 353.13 224.121 349.94 224.131C348.3 224.131 346.7 224.351 346.86 221.771C346.97 220.081 347.46 219.381 349.19 219.471C351.21 219.571 353.23 219.581 355.25 219.461C357.05 219.361 357.57 220.131 357.46 221.801C357.35 223.541 357.41 225.281 357.43 227.021C357.51 234.751 350.95 237.741 344.8 236.421C339.77 235.341 337.58 232.391 337.32 227.241C337.23 225.361 337.3 223.481 337.3 221.601C337.3 221.581 337.3 221.581 337.31 221.581Z" fill="black"/>
<path d="M202.26 221.861C202.26 223.391 202.22 224.921 202.27 226.451C202.54 234.041 196.47 237.701 189.72 236.431C185.14 235.571 182.56 232.881 182.21 228.201C181.89 223.981 181.94 219.711 182.15 215.481C182.52 207.911 189.14 206.121 193.95 206.891C199.57 207.791 202.22 211.081 202.27 216.831C202.27 218.521 202.26 220.191 202.26 221.861ZM197.71 221.731C197.71 219.781 197.83 217.821 197.68 215.881C197.45 212.811 195.27 211.221 191.78 211.391C188.25 211.561 186.77 212.901 186.73 216.131C186.68 219.821 186.68 223.521 186.74 227.211C186.79 230.411 188.57 232.031 191.96 232.121C195.36 232.211 197.48 230.511 197.68 227.371C197.81 225.501 197.71 223.611 197.71 221.731Z" fill="black"/>
<path d="M178.08 235.778C173.85 236.708 173.48 236.508 172.05 232.938C171.25 230.938 170.5 228.898 169.52 226.988C169.2 226.368 168.25 225.708 167.57 225.688C162.67 225.548 163.59 225.338 163.51 229.568C163.48 231.238 163.45 232.918 163.53 234.588C163.6 235.978 162.89 236.278 161.73 236.128C160.62 235.978 158.99 236.688 159.06 234.538C159.07 234.328 159.05 234.118 159.05 233.908C159.05 225.748 159.09 217.588 159.03 209.428C159.02 207.788 159.48 207.188 161.16 207.278C163.66 207.408 166.18 207.268 168.69 207.328C172.62 207.418 175.54 209.238 177.05 212.878C178.54 216.488 177.96 219.948 175.16 222.708C173.82 224.028 173.75 225.108 174.45 226.708C175.75 229.678 176.87 232.728 178.08 235.778ZM163.52 216.248C163.61 221.428 162.67 221.028 168.13 221.018C171.3 221.018 173.1 219.218 173.11 216.348C173.13 213.718 171.18 211.858 168.16 211.828C162.78 211.768 163.6 211.208 163.52 216.248Z" fill="black"/>
<path d="M131.239 221.771C131.239 223.441 131.189 225.121 131.249 226.791C131.519 234.061 125.29 237.721 118.76 236.451C114 235.531 111.359 232.501 111.119 227.791C110.919 223.821 110.929 219.831 111.099 215.861C111.449 207.881 118.099 206.051 123.239 206.951C128.629 207.901 131.169 211.101 131.229 216.531C131.249 218.281 131.239 220.031 131.239 221.771ZM115.729 221.501C115.709 221.501 115.7 221.501 115.68 221.501C115.68 223.241 115.66 224.991 115.68 226.731C115.74 230.411 117.629 232.201 121.349 232.141C124.739 232.091 126.77 230.031 126.79 226.591C126.81 223.661 126.79 220.731 126.78 217.801C126.77 212.631 124.25 210.581 119.18 211.641C116.78 212.141 115.849 213.141 115.739 215.641C115.659 217.591 115.729 219.551 115.729 221.501Z" fill="black"/>
<path d="M424.64 221.759C424.64 225.729 424.55 229.709 424.68 233.679C424.75 235.629 424.08 236.179 422.18 236.189C420.07 236.199 420.01 235.069 420.06 233.519C420.13 231.009 420 228.499 420.08 225.989C420.13 224.409 419.46 223.889 417.97 223.939C415.95 224.009 413.92 224.029 411.9 223.949C410.47 223.889 409.9 224.389 409.95 225.869C410.03 228.659 409.88 231.449 409.98 234.239C410.04 235.949 409.16 236.189 407.78 236.159C406.44 236.129 405.32 236.189 405.34 234.249C405.41 225.879 405.4 217.509 405.33 209.149C405.31 207.169 406.52 207.339 407.81 207.309C409.17 207.269 410.08 207.469 410 209.209C409.89 211.989 410.01 214.789 409.96 217.579C409.93 218.839 410.4 219.349 411.66 219.319C413.89 219.269 416.12 219.289 418.35 219.329C419.62 219.349 420.07 218.749 420.05 217.539C420.02 214.749 420.12 211.959 420.02 209.169C419.95 207.189 421.18 207.359 422.48 207.319C423.87 207.279 424.69 207.509 424.65 209.229C424.57 213.389 424.64 217.579 424.64 221.759Z" fill="black"/>
<path d="M246.57 207.328C250.17 211.058 253.69 214.718 257.4 218.568C260.3 215.688 262.96 213.058 265.61 210.428C266.1 209.938 266.65 209.478 267.06 208.918C268.21 207.308 269.19 207.508 270.54 208.828C271.82 210.078 271.72 210.898 270.49 212.038C267.23 215.058 264.04 218.158 260.64 221.398C261.92 222.748 262.8 223.698 263.72 224.628C265.93 226.858 268.08 229.158 270.39 231.268C271.73 232.488 271.83 233.308 270.51 234.628C269.24 235.898 268.43 235.998 267.15 234.618C264.5 231.758 261.68 229.058 258.92 226.298C258.53 225.918 258.09 225.598 257.37 224.988C254.21 228.218 251.05 231.328 248.04 234.588C246.78 235.958 246.01 235.928 244.71 234.628C243.39 233.308 243.44 232.528 244.77 231.278C247.62 228.608 250.25 225.708 253.08 223.028C254.21 221.958 254.05 221.308 253.05 220.338C250.35 217.718 247.72 215.028 245.09 212.338C243.15 210.358 243.16 210.338 245.16 208.518C245.53 208.168 245.96 207.838 246.57 207.328Z" fill="black"/>
<path d="M446.3 207.352C446.47 207.792 446.59 207.972 446.61 208.172C447.01 211.752 446.98 211.792 443.38 211.802C440.87 211.812 438.36 211.862 435.85 211.782C434.38 211.732 433.87 212.342 433.9 213.752C434.03 220.442 432.97 219.332 439.24 219.452C440.56 219.482 441.89 219.532 443.21 219.432C444.91 219.312 445.78 219.792 445.8 221.712C445.83 223.612 445.04 224.142 443.31 224.092C440.8 224.012 438.29 224.132 435.79 224.072C434.45 224.042 433.97 224.552 433.9 225.892C433.61 231.592 433.57 231.592 439.16 231.592C441.18 231.592 443.2 231.622 445.22 231.572C446.91 231.522 446.69 232.712 446.66 233.722C446.63 234.742 447.09 236.122 445.25 236.122C440.44 236.122 435.63 236.182 430.83 236.072C430.32 236.062 429.4 235.142 429.39 234.642C429.3 226.072 429.31 217.502 429.38 208.932C429.38 208.402 430.12 207.432 430.54 207.422C435.82 207.322 441.1 207.352 446.3 207.352Z" fill="black"/>
<path d="M362.26 221.499C362.26 217.459 362.31 213.409 362.24 209.369C362.21 207.849 362.71 207.269 364.28 207.299C368.67 207.369 373.06 207.389 377.45 207.279C379.25 207.229 379.5 208.069 379.49 209.559C379.48 211.019 379.34 211.929 377.49 211.829C374.57 211.689 371.64 211.849 368.71 211.769C367.24 211.729 366.81 212.299 366.78 213.719C366.65 219.459 366.61 219.459 372.25 219.459C373.85 219.459 375.46 219.489 377.06 219.459C378.83 219.429 378.59 220.679 378.59 221.779C378.59 222.879 378.82 224.109 377.04 224.079C374.32 224.039 371.6 224.129 368.89 224.049C367.41 224.009 366.8 224.429 366.78 226.039C366.72 231.589 366.66 231.589 372.17 231.589C374.12 231.589 376.07 231.649 378.02 231.579C379.73 231.519 379.5 232.699 379.47 233.709C379.44 234.739 379.91 236.119 378.06 236.109C373.32 236.099 368.58 236.089 363.84 236.119C362.3 236.129 362.24 235.169 362.24 234.029C362.26 229.849 362.25 225.669 362.25 221.489C362.25 221.499 362.26 221.499 362.26 221.499Z" fill="black"/>
<path d="M394.22 224.051C394.22 227.401 394.15 230.751 394.25 234.091C394.3 235.811 393.6 236.211 392.01 236.171C390.44 236.131 389.58 235.891 389.61 233.991C389.72 227.371 389.6 220.741 389.71 214.121C389.74 212.251 389.11 211.581 387.31 211.781C386.55 211.861 385.78 211.791 385.01 211.791C382.22 211.801 382.18 211.711 382.28 209.031C382.33 207.801 382.77 207.301 384.03 207.311C389.33 207.351 394.63 207.361 399.93 207.301C401.85 207.281 401.53 208.571 401.59 209.731C401.65 210.981 401.5 212.011 399.85 211.821C399.71 211.801 399.57 211.811 399.43 211.811C394.21 211.851 394.21 211.851 394.21 217.161C394.21 219.461 394.21 221.761 394.21 224.061C394.21 224.051 394.21 224.051 394.22 224.051Z" fill="black"/>
</svg>
