<svg width="1280" height="505" viewBox="0 0 1280 505" fill="none" xmlns="http://www.w3.org/2000/svg">
<g clip-path="url(#clip0_773_5958)">
<path d="M0.00994488 504.096C26.7418 499.497 48.2426 508.913 65.6462 528.909C70.3203 534.283 74.6662 539.977 78.853 545.749C83.9249 552.756 87.3857 560.609 89.6332 569.099C90.0907 569.03 90.4587 569.07 90.7371 568.92C104.153 561.654 118.553 556.827 132.874 551.801C150.506 545.62 167.512 538.185 182.767 527.187C184.885 525.664 186.894 523.962 188.804 522.181C190.564 520.538 190.723 518.568 189.191 516.607C187.67 514.646 185.651 514.467 183.602 515.422C182.916 515.741 182.349 516.846 182.2 517.682C181.255 522.917 177.854 524.52 173.19 521.822C165.96 517.632 164.568 507.977 170.515 501.468C176.213 495.238 183.563 493.108 191.737 494.66C208.614 497.855 217.863 518.14 209.569 533.398C207.013 538.096 203.532 542.087 199.087 544.933C192.792 548.964 186.437 553.085 179.634 556.111C166.199 562.102 152.455 567.417 138.801 572.911C131.511 575.848 124.172 578.654 116.813 581.411C101.557 587.134 89.1957 596.958 78.0673 608.553C73.3037 613.52 69.833 619.273 67.8937 625.931C66.2429 631.575 66.77 636.88 70.1612 641.717C72.5977 645.191 75.2231 648.535 77.7789 651.919C80.0265 654.895 82.0552 657.961 79.6983 661.773C77.9381 664.619 74.5369 665.246 69.6241 663.853C50.5399 658.438 38.9342 638.472 43.847 619.283C46.7509 607.936 52.6582 598.322 61.4097 590.558C65.865 586.607 70.5391 582.884 75.3126 579.321C77.2717 577.858 77.6099 576.495 76.9038 574.315C74.5966 567.248 71.1954 560.729 65.9942 555.464C59.8483 549.233 53.4537 543.211 46.7807 537.568C39.9088 531.765 31.6645 528.451 22.923 526.411C15.1262 524.599 7.49844 525.266 0 527.953C0.00994488 520.011 0.00994488 512.048 0.00994488 504.096Z" fill="#D4F1F0"/>
<path d="M0.00976562 246.371C17.3536 236.557 35.9506 232.108 55.7309 235.004C74.6063 237.771 84.4319 252.85 80.3943 271.542C78.2859 281.306 73.7113 289.925 66.9488 297.161C60.5443 304.009 53.8911 310.697 46.7806 316.789C32.6489 328.872 18.1194 340.497 3.7391 352.291C2.57555 353.247 1.25288 354.023 0.00976562 354.879C0.00976562 344.747 0.00976562 334.625 0.00976562 324.492C10.3524 315.883 20.8244 307.413 30.998 298.604C37.0644 293.349 42.7927 287.686 48.4413 281.973C52.6281 277.743 55.3033 272.468 57.342 266.904C57.8989 265.391 58.1973 263.769 58.4161 262.166C58.8039 259.369 57.6603 257.269 54.9055 256.543C51.7828 255.727 48.5905 254.89 45.3883 254.701C32.6091 253.965 20.1979 256.145 7.96567 259.668C5.39989 260.404 2.66505 260.584 0.00976562 261.022C0.00976562 256.145 0.00976562 251.258 0.00976562 246.371Z" fill="#D4F1F0"/>
<path d="M0.00976562 19.042C10.4221 13.966 17.8509 6.35185 20.6653 -5.20368C21.1924 -7.3436 22.0675 -9.26454 24.693 -9.17497C27.2389 -9.08539 28.4422 -7.18435 28.5914 -5.04443C28.7704 -2.57607 28.8499 0.170985 27.9748 2.40048C22.7438 15.7476 13.4354 25.1831 0.00976562 30.4383C0.00976562 26.6362 0.00976562 22.8342 0.00976562 19.042Z" fill="#D4F1F0"/>
<path d="M471.208 579.729C465.818 575.987 460.408 572.603 455.416 568.681C449.717 564.212 445.371 558.509 442.716 551.721C441.821 549.422 441.324 546.844 441.214 544.376C441.085 541.201 442.885 538.981 445.331 538.394C447.659 537.837 449.906 538.952 451.467 541.808C455.605 549.353 461.472 555.324 468.523 560.062C471.864 562.311 475.683 563.844 479.293 565.695C480.954 566.551 482.098 566.064 483.54 564.77C489.377 559.535 495.374 554.468 501.421 549.462C502.853 548.268 504.623 547.412 506.353 546.655C510.729 544.734 514.995 545.889 517.124 549.402C519.212 552.846 518.377 557.007 514.637 559.963C507.079 565.954 500.476 572.902 494.658 580.536C490.561 585.9 486.633 591.494 483.45 597.436C477.105 609.27 479.502 620.975 485.688 632.073C486.941 634.312 489.566 636.183 491.993 637.288C498.507 640.264 505.458 640.732 512.41 639.01C524.93 635.905 532.777 620.865 528.043 609.3C525.994 604.284 523.856 603.258 519.043 605.617C514.697 607.757 510.232 609.947 508.651 615.222C508.143 616.904 506.97 616.566 505.886 615.74C503.131 613.63 501.669 610.833 501.62 607.359C501.61 606.463 501.729 605.558 501.908 604.672C503.559 596.65 514.21 587.144 522.892 585.9C531.822 584.626 539.698 589.065 544.472 598.113C548.291 605.339 549.295 613.032 547.953 621.025C543.766 645.947 522.474 661.126 496.876 657.423C493.674 656.955 490.471 656.229 487.369 655.293C477.841 652.427 470.89 646.425 466.763 637.368C461.562 625.942 458.936 614.087 461.452 601.497C461.532 601.069 461.532 600.631 461.581 600.064C460.766 600.064 460.07 600.024 459.384 600.073C425.123 602.492 395.746 592.37 372.724 566.133C369.034 561.933 365.683 557.425 362.341 552.926C353.471 540.982 350.03 527.207 348.548 512.656C347.026 497.686 347.504 482.856 350.368 468.106C352.804 455.565 349.483 447.134 335.838 438.226C328.191 433.23 319.409 429.945 311.036 426.094C303.159 422.461 295.124 419.186 287.228 415.593C278.605 411.681 270.63 406.735 264.086 399.798C262.057 397.648 260.138 395.269 258.716 392.691C254.817 385.634 257.045 378.578 264.156 374.775C269.854 371.73 276.139 370.884 282.424 370.058C295.213 368.386 307.814 370.486 320.483 371.839C340.403 373.969 359.288 380.23 378.482 385.336C388.437 387.983 398.471 390.292 408.446 392.85C410.972 393.497 413.558 394.184 415.875 395.339C424.248 399.519 429.39 406.128 428.843 415.782C428.047 429.945 427.043 444.099 421.066 457.376C415.974 468.673 413.916 480.855 411.579 492.929C410.574 498.104 409.192 503.111 405.83 507.4C403.762 510.028 401.475 510.685 399.436 508.107C397.546 505.728 395.537 502.673 395.398 499.836C395.06 492.57 395.388 485.235 396.084 477.979C397.079 467.469 400.013 457.366 404.508 447.811C409.341 437.54 409.56 426.452 410.614 415.503C410.912 412.428 409.023 410.806 406.278 410.179C400.202 408.805 394.066 407.67 388.009 406.217C372.465 402.495 357.051 398.076 341.388 395.01C326.609 392.114 311.593 390.372 296.626 388.58C291.414 387.963 286.034 388.73 280.734 388.869C280.634 389.148 280.545 389.426 280.445 389.705C281.042 390.243 281.559 390.929 282.245 391.308C288.262 394.582 294.209 398.026 300.375 401.002C313.711 407.441 327.216 413.523 340.542 419.992C347.106 423.177 352.506 427.915 357.21 433.588C366.558 444.865 370.079 457.615 367.921 472.037C365.514 488.091 365.753 504.106 368.716 520.081C369.88 526.371 371.978 532.313 375.449 537.698C383.246 549.781 392.484 560.639 403.772 569.587C407.213 572.314 411.002 574.822 414.99 576.604C430.583 583.551 446.913 587.483 464.058 587.762C465.808 587.791 466.882 587.314 467.698 585.691C468.841 583.442 470.243 581.352 471.208 579.729Z" fill="#D4F1F0"/>
<path d="M584.987 531.148C585.863 550.796 586.817 570.284 595.996 587.712C608.119 610.723 626.607 627.395 650.952 636.969C671.836 645.181 693.536 648.883 715.782 644.514C737.174 640.304 755.89 630.42 771.345 614.764C773.055 613.032 774.776 611.251 776.755 609.857C783.398 605.189 791.165 607.767 793.76 615.441C794.476 617.571 794.824 619.83 795.401 622.01C796.167 624.886 796.913 627.783 797.828 630.609C804.153 650.088 818.951 659.284 837.816 663.494C843.534 664.768 849.253 665.107 854.921 663.076C864.508 659.633 868.357 651.76 864.429 642.374C856.781 624.08 843.067 612.296 824.361 606.145C821.964 605.358 819.448 604.891 817.101 603.975C812.377 602.144 810.04 597.854 811.134 593.435C812.198 589.105 816.385 586.308 821.347 586.866C823.844 587.144 826.34 587.692 828.756 588.418C842.828 592.638 856.682 592.758 870.316 586.647C875.1 584.507 880.032 582.715 884.776 580.496C890.564 577.788 895.158 573.737 898.032 567.835C900.21 563.376 903.751 561.873 907.49 563.416C911.11 564.909 913.019 569.169 911.667 573.449C910.971 575.658 909.877 577.808 908.624 579.759C904.964 585.452 900.26 590.21 894.601 593.922C884.955 600.252 874.771 605.468 863.414 608.046C862.987 608.145 862.579 608.304 861.793 608.563C862.639 609.449 863.295 610.146 863.951 610.843C872.862 620.417 878.779 631.555 880.788 644.524C882.827 657.662 876.363 669.914 864.558 676.115C854.732 681.271 844.3 681.848 833.669 679.857C828.19 678.832 822.75 677.349 817.449 675.587C798.335 669.207 786.55 655.621 780.146 636.9C779.857 636.044 779.579 635.188 779.271 634.332C779.211 634.173 779.052 634.053 778.803 633.745C778.177 634.222 777.53 634.67 776.934 635.178C747.497 660.13 713.784 669.964 675.555 664.121C662.1 662.061 649.003 658.757 636.442 653.442C613.171 643.598 594.962 627.783 581.348 606.563C576.813 599.496 573.64 591.832 571.512 583.74C565.973 562.62 564.929 541.091 566.082 519.423C566.281 515.651 567.504 511.73 569.105 508.276C572.845 500.224 581.606 497.855 588.876 502.971C591.989 505.151 594.773 508.097 596.971 511.212C600.392 516.079 602.988 521.504 606.279 526.48C610.705 533.169 615.449 539.648 620.053 546.227C620.61 547.023 621.107 547.859 621.624 548.686C621.903 548.476 622.181 548.267 622.47 548.058C622.47 547.023 622.539 545.988 622.46 544.963C620.123 516.258 628.357 490.261 642.916 465.985C645.771 461.228 649.629 457.047 653.249 452.788C654.492 451.324 656.272 450.18 658.023 449.314C660.877 447.881 664.079 448.687 665.899 450.926C667.679 453.116 667.769 456.102 665.969 458.749C664.397 461.068 662.498 463.179 661.056 465.567C645.482 491.346 638.282 518.926 643.334 549.094C644.438 555.692 645.462 562.301 646.646 568.88C647.789 575.21 646.039 580.177 641.504 582.904C637.009 585.602 631.679 585.004 626.736 580.814C612.644 568.88 600.332 555.364 590.765 539.469C589.184 536.831 587.553 534.234 585.922 531.626C585.833 531.477 585.614 531.447 584.987 531.148Z" fill="#D4F1F0"/>
<path d="M1130.03 346.658C1131.1 343.851 1131.85 341.751 1132.7 339.681C1134.7 334.853 1137.39 330.504 1141.71 327.369C1148.53 322.422 1156.08 323.029 1161.61 329.379C1164.14 332.275 1166.04 335.739 1168.13 339.004C1170.11 342.129 1171.87 345.404 1173.94 348.469C1176.06 351.574 1179.21 353.237 1183.16 354.252C1183.29 352.908 1183.53 351.863 1183.48 350.828C1183.11 342.706 1182.69 334.595 1182.29 326.473C1182.11 322.86 1181.79 319.247 1181.86 315.644C1181.95 310.528 1187.06 307.801 1191.04 311.016C1193.44 312.957 1195.63 315.883 1196.52 318.789C1198.41 325.069 1199.92 331.559 1200.62 338.068C1201.5 346.399 1201.81 354.829 1201.68 363.21C1201.52 372.994 1197 380.906 1189.44 387.027C1187.13 388.899 1184.7 390.7 1182.1 392.103C1167.84 399.777 1153.35 406.934 1137.68 411.393C1130.47 413.443 1123.34 415.802 1116.12 417.802C1110.49 419.355 1106.95 422.809 1105.86 428.492C1104.65 434.782 1102.99 441.112 1102.88 447.453C1102.75 454.888 1103.57 462.502 1108.73 468.663C1109.81 469.957 1109.28 470.763 1108.12 471.479C1104.51 473.699 1100.79 473.908 1097.05 471.897C1088.85 467.478 1083.81 460.72 1082.85 451.374C1081.41 437.3 1084.4 424.202 1092.38 412.418C1097.2 405.291 1104.13 400.633 1111.83 397.289C1120.68 393.447 1129.68 389.834 1138.84 386.808C1149.51 383.285 1160 379.443 1169.96 374.238C1172.72 372.794 1175.31 371.023 1177.95 369.002C1163.4 369.48 1157.65 358.95 1151.52 348.041C1150.9 349.773 1150.53 350.928 1150.08 352.052C1148.22 356.551 1146.77 361.309 1144.36 365.479C1138.78 375.114 1128.28 376.746 1119.62 369.719C1115.54 366.395 1112.82 362.035 1110.55 357.357C1110.09 356.402 1109.64 355.446 1109.05 354.222C1107.97 355.008 1107.1 355.605 1106.26 356.252C1091.71 367.45 1075.53 374.397 1056.99 375.303C1049.25 375.681 1041.62 375.074 1034.22 372.725C1019.07 367.898 1013.35 355.118 1019.69 340.556C1023.96 330.723 1031.2 323.586 1040.23 318.132C1054.14 309.742 1068.72 302.685 1084.25 297.997C1101.19 292.881 1118.31 288.352 1135.44 283.884C1154.69 278.857 1171.56 269.332 1187.01 257.11C1190.01 254.731 1192.4 251.576 1195.13 248.839C1196.84 247.117 1198.47 245.236 1200.45 243.882C1203.3 241.921 1206.83 242.29 1209.29 244.33C1211.81 246.43 1212.86 250.023 1211.27 253.178C1210.06 255.547 1208.34 257.747 1206.5 259.678C1192.79 274.08 1176.32 284.491 1157.78 291.249C1141.17 297.31 1124.18 302.376 1107.3 307.701C1089.91 313.195 1073.21 320.202 1057.69 329.847C1053.86 332.226 1050.02 334.724 1046.7 337.73C1043.94 340.228 1041.66 343.383 1039.69 346.568C1037.48 350.161 1037.88 350.997 1041.89 352.022C1046.25 353.147 1050.69 354.162 1055.15 354.62C1062.93 355.426 1070.67 354.74 1078.3 353.008C1086.22 351.216 1092.84 347.255 1098.34 341.293C1101.16 338.247 1104 335.182 1107.11 332.445C1112.87 327.388 1119.93 328.424 1123.99 334.943C1126.14 338.486 1127.79 342.308 1130.03 346.658Z" fill="#D4F1F0"/>
<path d="M590.726 127.889C589.503 128.496 588.478 129.004 587.454 129.521C574.008 136.339 560.066 137.613 545.626 133.244C535.154 130.069 527.168 123.569 521.052 114.632C512.37 101.941 509.168 87.7781 510.292 72.6295C511.833 51.8375 518.466 32.8171 531.773 16.5637C545.536 -0.247023 563.258 -10.7276 585.007 -12.5391C606.101 -14.3008 622.788 -5.14394 634.921 11.8758C642.081 21.9185 642.27 33.4541 639.058 44.94C637.596 50.1952 635.587 55.4803 632.803 60.1384C627.084 69.7232 615.24 74.6102 605.245 71.674C601.317 70.5194 597.816 67.9217 593.779 65.8017C591.114 67.7525 587.991 70.39 584.53 72.4702C581.079 74.5504 577.439 76.5809 573.611 77.7255C566.182 79.945 560.145 74.8689 561.03 67.2051C561.538 62.8556 562.94 58.5857 564.133 54.3357C565.535 49.3791 567.146 44.4921 568.698 39.5753C568.996 38.6297 569.334 37.6842 569.812 36.8183C571.284 34.1608 574.108 32.8769 576.892 33.5039C579.717 34.1309 581.895 36.46 581.795 39.5255C581.706 42.2925 581.119 45.0694 580.483 47.7766C579.806 50.6531 578.812 53.4499 578.374 56.6249C579.428 55.6197 580.592 54.7139 581.497 53.5992C584.112 50.3744 586.529 46.9804 589.204 43.8153C591.85 40.69 595.31 39.2966 599.398 40.262C603.505 41.2374 605.802 44.1139 606.817 48.0852C607.175 49.4886 607.483 50.9019 607.712 52.3252C608.119 54.8433 609.8 55.7092 611.789 54.6642C614.186 53.4101 616.921 51.937 618.313 49.7871C622.38 43.5067 624.479 36.3604 623.305 28.8757C622.758 25.3822 621.157 21.61 618.9 18.9027C606.061 3.50529 590.238 -0.874067 572.676 5.71488C558.703 10.9602 547.336 19.5397 539.281 32.1801C528.62 48.9113 523.13 67.0458 525.418 87.0416C526.512 96.6264 530.301 105.246 536.665 112.462C545.924 122.952 557.768 125.878 571.114 122.793C577.439 121.33 583.009 118.045 587.842 113.656C590.915 110.859 593.083 107.585 593.858 103.335C594.893 97.7013 598.851 94.5362 603.763 94.9045C608.676 95.2728 612.545 99.3237 612.306 105.017C612.077 110.581 611.401 116.234 609.999 121.609C607.254 132.179 604.34 142.739 600.671 153.011C594.793 169.443 582.481 176.988 565.207 177.077C554.944 177.127 545.079 175.186 535.482 171.792C524.403 167.881 513.404 163.76 502.346 159.819C481.77 152.483 460.846 152.662 439.832 157.41C429.3 159.789 419.813 164.686 411.052 170.906C408.645 172.618 406.537 174.798 404.478 176.928C401.833 179.665 400.729 183.119 400.918 186.871C401.266 193.729 403.195 200.029 408.078 205.135C408.635 205.722 409.271 206.26 409.719 206.926C410.087 207.474 410.236 208.181 410.485 208.808C409.769 209.007 409.003 209.455 408.327 209.355C402.24 208.459 397.308 205.513 393.479 200.726C385.901 191.25 385.255 176.54 391.888 166.407C395.369 161.093 400.063 157.042 405.244 153.488C420.171 143.286 436.789 138.28 454.7 136.628C477.215 134.558 498.805 138.001 519.779 146.143C527.864 149.278 535.959 152.413 544.104 155.37C552.498 158.415 561.13 160.137 570.13 159.639C577.022 159.261 582.253 156.146 584.639 149.686C587.096 143.018 588.767 136.061 590.766 129.223C590.935 128.954 590.795 128.576 590.726 127.889Z" fill="#D4F1F0"/>
<path d="M724.176 209.246C725.847 206.309 727.697 203.473 729.139 200.427C730.521 197.491 731.346 194.306 732.659 191.33C733.813 188.702 734.946 185.945 736.687 183.716C741.689 177.316 750.44 177.545 755.204 184.124C756.835 186.373 758.018 188.961 759.321 191.43C761.569 195.68 764.632 199.143 768.719 201.701C771.852 203.662 774.984 203.761 778.226 202.059C783.786 199.143 787.943 194.873 790.459 189.111C794.287 180.312 795.003 171.364 791.861 162.148C785.317 142.968 774.696 126.535 759.063 113.547C750.271 106.241 740.804 99.9209 730.252 95.4122C715.096 88.9327 699.533 88.3355 683.85 92.9239C679.146 94.2974 674.631 96.6165 670.344 99.065C663.751 102.837 658.729 108.182 656.014 115.478C655.696 116.344 654.701 116.961 654.025 117.697C653.468 116.941 652.662 116.264 652.384 115.408C649.838 107.834 650.902 100.608 654.741 93.7301C657.814 88.236 662.19 83.9263 667.55 80.7413C691.219 66.6677 716.18 63.2438 741.808 74.0827C779.39 89.9877 804.093 118.095 816.375 156.952C820.641 170.458 820.413 183.945 812.825 196.516C804.749 209.883 792.637 217.537 777.451 220.085C767.605 221.747 759.252 217.626 751.693 211.654C750.928 211.047 750.192 210.39 749.158 209.524C748.611 210.51 748.213 211.386 747.676 212.142C744.344 216.84 741.301 221.796 737.512 226.096C735.265 228.634 732.042 230.625 728.88 231.988C721.004 235.382 713.625 231.57 711.357 223.329C709.428 216.312 709.448 209.136 710.492 202.059C712.053 191.43 714.112 180.869 715.962 170.269C716.081 169.573 716.2 168.876 716.3 168.249C709.149 169.911 702.069 171.444 695.048 173.235C686.913 175.316 678.817 177.535 670.752 179.844C659.236 183.139 650.146 190.355 641.246 198.029C626.03 211.147 616.911 227.579 613.221 247.217C612.634 250.322 611.988 253.447 610.944 256.413C609.183 261.43 605.444 264.147 601.158 263.978C596.583 263.798 592.894 260.623 591.521 255.438C589.96 249.516 590.497 243.554 591.909 237.711C596.504 218.681 606.836 203.035 620.54 189.349C634.105 175.803 650.216 167.811 669.38 165.98C680.797 164.895 692.173 163.451 703.58 162.237C709.776 161.58 715.335 159.639 719.959 155.28C722.704 152.702 725.091 152.264 727.249 153.717C729.934 155.529 729.984 158.216 729.327 161.003C725.946 175.216 724.624 189.718 723.43 204.229C723.301 205.752 723.41 207.285 723.41 208.818C723.659 208.977 723.917 209.116 724.176 209.246Z" fill="#D4F1F0"/>
<path d="M204.039 440.406C197.117 443.103 190.245 443.402 183.005 442.257C183.005 443.342 182.956 444.208 183.015 445.064C183.89 458.053 179.962 469.559 169.49 477.193C126.17 508.764 74.795 482.876 66.2225 440.734C58.8036 404.266 75.4215 365.957 107.146 346.777C130.526 332.644 156.045 327.896 182.985 333.251C188.793 334.405 194.482 337.083 199.683 340.019C202.955 341.87 205.351 345.394 207.848 348.419C208.733 349.494 209.011 351.286 209.071 352.769C209.23 356.86 206.237 358.761 202.249 357.954C192.702 356.014 183.164 353.495 173.508 352.809C146.746 350.908 124.311 361.08 105.853 379.981C95.729 390.342 91.7411 403.788 90.1598 417.902C89.6825 422.182 89.8018 426.571 90.0505 430.881C91.582 457.227 115.43 470.335 135.2 468.414C141.038 467.847 146.895 466.135 152.415 464.054C158.959 461.586 162.519 456.231 162.857 449.175C163.195 442.148 159.794 437.092 153.728 433.747C151.828 432.702 149.799 431.886 147.95 430.771C146.03 429.617 144.001 428.472 142.45 426.9C139.119 423.525 138.194 419.355 139.874 414.886C141.565 410.397 145.056 407.849 149.769 407.64C152.494 407.521 155.478 407.859 157.974 408.884C163.046 410.965 167.859 413.692 172.822 416.061C178.102 418.589 183.324 421.266 188.763 423.386C192.891 424.999 197.276 424.541 201.562 423.326C203.432 422.799 204.039 421.893 204.277 419.962C205.003 414.16 205.819 408.347 207.072 402.634C207.609 400.166 209.031 397.757 210.513 395.647C212.74 392.462 216.002 390.979 219.951 391.556C223.899 392.133 226.624 394.502 227.787 398.195C228.652 400.912 229.15 403.848 229.239 406.695C229.418 412.02 229.309 417.364 229.09 422.679C228.394 439.699 230.134 456.301 237.563 471.888C239.104 475.132 241.153 478.148 243.023 481.233C244.584 483.791 245.976 486.409 243.938 489.266C241.829 492.212 238.736 492.739 235.445 491.953C229.766 490.589 224.993 487.524 220.826 483.503C212.571 475.55 208.096 465.617 206.067 454.509C205.242 449.991 204.745 445.412 204.039 440.406Z" fill="#D4F1F0"/>
<path d="M802.781 550.348C801.538 552.04 800.742 553.513 799.588 554.608C790.19 563.565 779.112 568.781 765.995 567.407C751.455 565.885 741.192 557.793 735.006 544.565C733.395 541.131 733.375 540.952 729.924 542.694C719.194 548.098 708.543 553.652 697.842 559.116C695.595 560.261 693.327 561.435 690.97 562.301C686.425 563.983 682.02 563.755 678.301 560.321C674.531 556.837 674.342 552.478 675.635 547.8C679.116 535.269 682.617 522.738 685.928 510.157C686.953 506.246 687.599 502.195 688.017 498.174C688.912 489.614 693.327 483.911 701.87 482.916C709.348 482.05 716.996 482.308 724.554 482.607C756.945 483.911 789.335 485.434 821.726 486.817C823.486 486.897 825.296 486.459 827.036 486.061C841.864 482.677 856.781 481.791 871.559 485.762C893.19 491.565 902.239 508.107 896.113 529.685C889.958 551.353 872.693 565.785 849.611 568.671C839.159 569.985 829.085 568.9 819.399 564.591C812.805 561.674 807.306 557.464 802.781 550.348ZM697.623 534.771C703.193 531.417 708.115 528.262 713.227 525.445C717.722 522.967 722.237 520.319 727.07 518.717C740.178 514.377 749.436 519.105 754.439 531.905C755.712 535.159 757.223 538.424 759.222 541.271C762.653 546.187 767.616 547.85 773.523 546.605C778.873 545.471 783.11 542.564 786.69 538.543C790.3 534.502 793.691 530.223 797.599 526.5C805.406 519.055 814.705 522.081 817.022 532.582C817.25 533.637 817.509 534.702 817.817 535.737C819.359 540.803 822.521 544.326 827.444 546.406C832.904 548.715 838.523 549.561 844.39 549.054C860.362 547.66 871.39 539.081 875.09 525.127C877.616 515.612 875.826 511.481 867.134 507.012C859.118 502.891 850.417 500.871 841.576 500.503C827.792 499.935 813.959 500.025 800.155 500.154C771.792 500.433 743.44 500.931 715.087 501.349C712.74 501.379 710.373 501.319 708.056 501.647C707.19 501.767 705.977 502.762 705.748 503.578C703.222 512.805 700.846 522.081 698.439 531.337C698.2 532.263 697.991 533.209 697.623 534.771Z" fill="#D4F1F0"/>
<path d="M197.943 288.91C195.297 290.473 192.304 292.304 189.251 294.026C186.973 295.31 184.696 296.664 182.289 297.649C175.119 300.555 168.098 297.709 165.562 290.403C164.259 286.641 163.494 282.411 163.712 278.469C164.418 265.749 165.681 253.069 166.736 240.369C166.845 239.045 167.004 237.721 167.173 236.009C165.87 236.477 164.975 236.885 164.041 237.114C156.97 238.876 149.969 241.404 142.778 242.17C130.526 243.474 120.78 238.368 113.988 227.977C108.896 220.184 105.853 211.585 105.306 202.308C104.252 184.104 107.613 166.696 117.031 150.98C130.854 127.909 152.405 119.409 178.311 120.026C182.498 120.126 186.486 121.529 189.907 124.147C194.343 127.541 195.486 132.338 193.189 137.434C192.115 139.813 190.404 140.908 187.799 140.43C186.824 140.251 185.84 140.072 184.885 139.823C178.66 138.22 170.912 141.873 168.585 147.994C167.909 149.776 168.188 152.384 168.983 154.175C171.619 160.107 176.81 162.436 182.995 162.685C188.714 162.914 194.243 161.67 199.146 158.803C209.916 152.493 218.28 143.943 221.85 131.612C222.676 128.745 222.865 125.61 222.815 122.594C222.755 118.583 225.729 115.667 229.756 116.314C233.724 116.951 237.086 120.295 237.444 125.003C237.722 128.636 237.543 132.468 236.678 135.991C231.039 159.032 210.722 176.032 187.093 177.266C182.319 177.515 177.287 176.818 172.683 175.505C159.953 171.872 152.823 162.317 151.629 148.034C150.943 148.402 150.237 148.592 149.839 149.039C146.438 152.871 142.57 156.415 139.825 160.675C132.913 171.374 129.035 183.318 127.195 195.899C126.131 203.154 127.165 210.141 130.685 216.671C134.037 222.891 138.582 225.29 145.642 224.374C153.718 223.329 161.176 220.353 168.426 216.8C170.375 215.845 172.275 214.76 174.294 213.993C180.688 211.575 187.182 215.178 187.6 221.976C187.968 227.977 187.461 234.079 186.804 240.08C185.591 251.218 183.96 262.315 182.558 273.433C182.299 275.463 182.299 277.534 182.13 280.35C184.885 278.867 187.113 277.773 189.241 276.499C191.638 275.055 193.845 273.284 196.282 271.92C201.543 268.964 206.813 270.099 210.453 274.906C211.587 276.409 212.383 278.161 213.387 279.773C216.251 284.372 219.076 288.98 222.029 293.518C224.754 297.709 228.682 300.257 233.416 301.779C236.32 302.715 239.284 303.72 241.879 305.273C245.37 307.373 245.012 310.07 241.312 311.902C240.825 312.141 240.328 312.429 239.801 312.489C228.722 313.912 217.882 313.863 209.737 304.656C205.501 299.878 202.04 294.444 197.943 288.91Z" fill="#D4F1F0"/>
<path d="M352.606 129.591C354.137 128.168 355.937 126.934 357.13 125.271C359.01 122.634 360.432 119.688 362.133 116.921C363.495 114.691 364.708 112.293 366.459 110.411C371.362 105.136 379.139 106.54 381.098 113.437C382.709 119.1 383.156 125.142 383.574 131.054C383.813 134.438 381.694 135.623 378.323 134.687C377.388 134.428 376.473 133.96 375.648 133.433C374.822 132.905 374.116 132.189 373.47 131.631C371.023 134.359 368.816 137.245 366.17 139.664C361.626 143.814 356.365 146.442 349.93 145.615C349.662 145.586 349.344 145.625 349.135 145.496C345.207 143.067 342.979 145.287 340.234 148.034C333.193 155.071 324.541 156.962 314.984 154.265C299.351 149.855 289.257 134.777 291.444 118.215C294.12 98.0397 304.124 82.284 322.791 73.6845C350.696 60.8251 378.383 61.0839 405.015 77.9345C410.584 81.4579 416.253 84.8419 422.031 88.007C428.296 91.4408 435.128 93.103 442.279 93.3817C442.726 93.4016 443.184 93.4215 443.631 93.3916C443.78 93.3817 443.919 93.2324 444.128 93.1129C444.069 92.8741 444.079 92.5854 443.949 92.3863C436.59 81.3683 433.507 69.0265 432.97 55.9879C432.383 41.6754 432.781 27.3927 436.461 13.4484C437.535 9.38755 439.255 5.42622 441.205 1.69381C442.328 -0.456055 444.238 -2.42677 446.257 -3.81024C451.348 -7.28387 457.733 -5.13401 459.692 0.708457C460.657 3.5849 461.035 6.70022 461.303 9.74586C461.721 14.593 463.282 18.9624 466.276 22.7147C469.995 27.3728 474.013 31.782 477.732 36.44C479.572 38.7492 481.044 41.3469 482.655 43.8352C483.58 45.2784 482.913 46.1642 481.551 46.8112C477.981 48.5032 474.52 47.9558 471.119 46.3035C464.893 43.2679 460.03 38.5899 455.585 33.4143C455.117 32.8669 454.67 32.2996 454.183 31.7621C454.083 31.6526 453.854 31.6526 453.616 31.5829C453.496 31.782 453.298 31.991 453.268 32.21C451.368 47.6771 450.801 63.0546 456.679 77.9444C457.047 78.8701 457.494 79.7559 457.832 80.6915C459.394 85.0708 462.198 87.7582 467.061 88.2558C468.633 88.4151 470.244 89.4701 471.566 90.4754C473.933 92.2669 474.51 94.8249 472.69 97.124C470.989 99.254 468.821 101.205 466.484 102.598C461.194 105.763 455.197 106.848 449.131 107.396C436.749 108.51 424.736 107.077 413.478 101.563C406.507 98.1492 399.595 94.586 392.852 90.7341C373.172 79.4871 352.874 78.9298 332.049 86.9022C317.629 92.4262 309.534 103.394 306.272 118.075C304.144 127.65 308.261 135.981 316.227 139.664C322.214 142.43 327.465 140.938 330.389 135.025C331.781 132.199 332.169 128.854 332.835 125.709C333.223 123.868 333.034 121.897 333.501 120.096C334.466 116.403 337.629 113.855 341.268 113.487C344.898 113.119 348.638 114.96 350.159 118.434C351.064 120.514 351.223 122.932 351.601 125.222C351.81 126.506 351.76 127.839 351.83 129.153C352.078 129.302 352.347 129.442 352.606 129.591Z" fill="#D4F1F0"/>
<path d="M998.247 605.468C998.884 601.158 999.093 597.814 999.938 594.639C1000.46 592.728 1001.72 590.867 1003.08 589.374C1005.01 587.264 1007.64 586.816 1010.31 587.94C1013.03 589.075 1014.42 591.344 1014.16 594.191C1013.89 597.137 1013.08 600.033 1012.54 602.96C1012.18 604.9 1011.66 606.861 1011.62 608.812C1011.55 612.594 1009.77 614.436 1006.2 613.4C1004.11 612.793 1002.83 613.39 1001.09 614.246C999.142 615.192 996.775 615.729 994.608 615.69C989.506 615.6 984.603 614.376 980.108 611.768C979.382 611.35 978.387 610.962 977.622 611.111C965.449 613.45 955.425 608.892 947.19 600.611C938.25 591.623 936.052 580.227 938.21 567.945C941.492 549.332 951.745 534.831 965.668 522.758C969.149 519.742 973.435 517.313 977.751 515.661C996.577 508.485 1015.4 501.01 1035.31 497.507C1050.05 494.919 1065.07 493.844 1079.95 492.132C1089.37 491.047 1098.8 490.022 1108.23 488.967C1108.5 488.937 1108.77 488.907 1109.02 488.828C1121.95 484.816 1133.95 478.805 1145.31 471.529C1147.39 470.205 1149.13 468.344 1151.03 466.742C1150.81 466.473 1150.59 466.204 1150.37 465.935C1148.12 465.468 1145.81 465.149 1143.6 464.492C1135.59 462.094 1131.98 455.345 1134.35 447.353C1135.7 442.844 1138.14 438.973 1141.51 435.698C1142.22 435.011 1143.03 434.404 1143.89 433.916C1146.44 432.463 1149.31 432.642 1151.22 434.384C1153.34 436.315 1153.82 438.744 1152.74 441.312C1151.49 444.307 1149.98 447.194 1148.58 450.13C1147.82 451.742 1148.2 452.758 1149.97 453.464C1156.49 456.102 1158.36 455.077 1159.51 448.159C1159.82 446.308 1160.11 444.387 1160.84 442.675C1162.09 439.749 1165.08 438.166 1168.07 438.465C1171.19 438.774 1173.87 440.694 1174.4 443.879C1174.82 446.378 1174.92 449.234 1174.11 451.583C1168.02 469.389 1158.07 484.219 1141.06 493.496C1124.21 502.682 1106.45 509.012 1087.27 510.904C1076.94 511.929 1066.57 512.645 1056.21 513.422C1043.61 514.357 1031.31 516.905 1019.35 520.807C1008.79 524.251 998.307 527.973 987.974 532.044C973.564 537.707 965.738 549.472 960.884 563.416C957.444 573.329 956.379 583.442 960.238 593.693C962.545 599.824 966.951 603.248 973.236 605.677C972.689 604.562 972.381 603.875 972.023 603.218C966.871 593.693 968.84 581.56 977.035 574.504C979.123 572.702 981.928 571.279 984.613 570.702C989.655 569.617 993.006 573.658 991.584 578.624C990.838 581.232 989.854 583.76 989.028 586.348C988.054 589.384 988.432 592.28 990.301 594.868C992.847 598.322 995.443 601.715 998.247 605.468Z" fill="#D4F1F0"/>
<path d="M1279.64 339.939C1279.64 344.01 1279.71 347.882 1279.56 351.734C1279.54 352.301 1278.6 353.087 1277.94 353.336C1274.46 354.59 1270.9 355.625 1267.42 356.889C1261.41 359.069 1256.97 363.11 1253.59 368.525C1247.73 377.89 1244.67 388.311 1242.37 398.911C1240.87 405.839 1240.06 413.015 1239.86 420.111C1239.55 431.04 1240.12 441.978 1240.16 452.917C1240.23 469.061 1237.88 484.966 1232.45 500.065C1226.09 517.731 1213.15 529.377 1194.68 533.328C1178.07 536.881 1162.07 542.087 1146.19 547.859C1141.77 549.462 1137.29 550.865 1132.81 552.289C1127.54 553.971 1122.96 556.718 1119.05 560.649C1114.65 565.078 1110.15 569.388 1105.76 573.817C1100.02 579.61 1095.6 586.268 1092.91 594.012C1090.64 600.541 1090.51 606.941 1094.38 612.992C1095.18 614.237 1094.64 615.172 1093.53 615.083C1091.45 614.913 1089.02 614.774 1087.47 613.629C1085.53 612.206 1083.92 609.977 1082.89 607.757C1075.83 592.589 1077.7 577.828 1087.19 564.66C1093.49 555.931 1101.31 548.188 1109.12 540.713C1112.92 537.08 1118.03 534.482 1122.97 532.422C1137.13 526.49 1151.39 520.727 1165.86 515.592C1172.86 513.103 1180.37 511.849 1187.75 510.665C1196.31 509.281 1203.35 505.429 1208.79 498.9C1211.28 495.914 1213.56 492.391 1214.74 488.728C1218.81 475.938 1220.6 462.81 1221.21 449.304C1222.06 430.582 1221.03 411.641 1225.43 393.178C1228.22 381.444 1231.85 370.037 1238.36 359.686C1247.11 345.752 1259.92 339.69 1275.97 339.601C1277.1 339.591 1278.25 339.81 1279.64 339.939Z" fill="#D4F1F0"/>
<path d="M382.778 251.486C376.225 249.546 369.552 247.913 363.157 245.524C359.875 244.29 358.165 245.047 355.748 247.246C335.848 265.371 315.799 283.326 295.761 301.312C291.057 305.532 286.243 309.642 281.519 313.842C279.222 315.893 276.696 317.366 273.524 317.336C268.134 317.286 263.867 312.957 263.937 307.283C264.195 284.451 259.78 262.494 252.679 240.866C248.373 227.758 245.24 214.262 241.501 200.965C240.457 197.232 239.095 193.589 237.941 189.887C237.434 188.254 236.797 186.602 236.698 184.93C236.509 181.685 237.901 179.088 240.895 177.644C243.987 176.161 247.15 176.589 249.447 178.968C256.975 186.771 266.712 190.673 276.428 194.585C289.286 199.76 302.692 199.85 316.197 198.287C318.962 197.969 321.697 197.282 324.442 196.764C326.082 196.456 326.719 195.51 326.987 193.818C327.684 189.548 328.499 185.268 329.623 181.098C330.09 179.376 331.244 177.654 332.527 176.37C334.178 174.708 336.445 174.609 338.603 175.544C340.771 176.48 342.064 178.212 342.163 180.571C342.223 182.083 341.865 183.606 341.696 185.119C340.93 191.828 339.916 198.516 339.468 205.244C339.18 209.614 341.03 213.535 343.894 216.889C349.841 223.867 356.683 229.699 365.484 232.725C373.748 235.571 382.102 238.149 390.406 240.886C391.42 241.215 392.425 241.693 393.29 242.3C395.04 243.524 395.13 244.967 393.757 246.649C391.758 249.118 387.472 250.82 382.967 250.77C382.907 251.029 382.838 251.257 382.778 251.486ZM259.044 200.865C259.332 202.547 259.382 203.333 259.601 204.07C262.624 214.57 265.299 225.2 268.81 235.532C273.474 249.257 277.591 263.082 279.69 277.454C280.207 280.967 280.903 284.461 281.639 288.661C303.637 271.462 325.476 255.209 346.489 237.353C336.455 229.231 327.087 221.319 326.311 207.653C303.14 211.903 280.714 213.177 259.044 200.865Z" fill="#D4F1F0"/>
<path d="M420.171 374.914C415.228 373.571 410.087 372.715 405.393 370.784C395.717 366.803 386.229 362.334 376.732 357.905C363.803 351.873 350.935 345.712 338.066 339.571C334.894 338.058 331.612 336.665 328.688 334.754C321.687 330.165 320.434 322.641 326.411 316.818C331.93 311.444 338.225 306.746 344.62 302.406C355.758 294.862 367.423 288.084 378.522 280.489C388.357 273.761 397.785 266.436 407.263 259.19C411.121 256.244 414.731 252.929 418.252 249.565C420.638 247.286 423.324 246.669 426.436 246.918C428.942 247.117 431.458 247.226 433.975 247.246C439.285 247.276 442.935 251.735 442.288 257.667C441.682 263.231 440.807 268.775 440.299 274.348C438.49 294.384 438.519 314.43 440.061 334.485C440.697 342.786 441.175 351.107 439.216 359.318C436.888 369.022 429.907 374.526 420.171 374.914ZM422.23 265.43C398.68 287.287 371.202 303.481 345.226 322.263C346.002 322.74 346.281 322.939 346.579 323.089C357.777 328.513 369.074 333.758 380.163 339.392C390.834 344.806 401.892 349.166 413.349 352.55C414.691 352.948 416.114 353.077 418.212 353.466C418.848 323.795 418.103 294.513 422.23 265.43Z" fill="#D4F1F0"/>
<path d="M889.987 319.576C882.976 320.8 876.253 322.094 869.481 323.119C861.356 324.343 853.231 325.727 845.056 326.234C840.482 326.513 835.589 325.826 831.233 324.393C821.059 321.059 817.022 310.936 821.368 301.133C823.834 295.569 827.941 291.438 833.023 288.253C840.919 283.317 849.641 280.848 858.83 279.873C859.546 279.793 860.272 279.803 860.998 279.823C864.419 279.952 866.577 281.386 867.263 283.983C867.939 286.561 866.816 288.91 863.693 290.552C860.182 292.404 856.453 293.847 852.953 295.718C849.293 297.669 845.653 299.699 842.282 302.098C840.323 303.501 838.93 305.691 837.279 307.522C837.419 307.851 837.548 308.179 837.687 308.508C839.497 308.737 841.347 309.354 843.097 309.145C851.52 308.14 859.944 307.124 868.307 305.711C876.582 304.318 884.786 302.466 893.021 300.774C902.587 298.804 908.316 303.422 908.425 313.176C908.455 316.331 908.445 319.516 908.843 322.641C909.39 326.931 911.906 329.688 916.252 330.544C929.13 333.092 940.557 329.499 950.343 321.307C957.354 315.435 957.284 304.357 950.373 297.838C946.783 294.454 942.317 291.538 937.723 289.776C927.052 285.675 915.834 284.382 904.417 286.024C903.085 286.213 901.752 286.551 900.489 287.009C893.846 289.378 888.108 284.909 888.873 277.852C889.391 273.135 891.708 269.253 895.885 267.173C899.534 265.351 903.582 263.769 907.59 263.321C921.592 261.748 935.167 263.958 948.105 269.591C954.46 272.358 960.099 276.27 964.912 281.296C981.689 298.804 978.268 327.289 957.622 339.979C944.535 348.022 930.234 351.147 914.979 348.35C900.131 345.623 891.877 336.456 890.306 321.477C890.216 321.049 890.136 320.611 889.987 319.576Z" fill="#D4F1F0"/>
<path d="M1131.39 121.718C1109.94 120.514 1088.91 116.582 1068.05 111.625C1055.04 108.54 1042 105.544 1028.88 103.066C1014.2 100.289 1001.06 105.176 988.64 112.561C984.782 114.86 982.584 118.384 981.41 122.653C978.288 134.01 979.59 145.058 983.747 155.877C985.557 160.595 987.606 165.233 989.505 169.921C989.754 170.538 990.072 171.643 989.814 171.842C989.287 172.26 988.252 172.568 987.686 172.319C984.742 171.045 981.251 170.219 979.103 168.069C970.014 159.012 962.256 148.85 961.153 135.533C959.79 119.12 965.32 101.961 983.061 92.3364C1003.83 81.0695 1025.43 79.3177 1047.97 84.3839C1062.6 87.6684 1077.1 91.6197 1091.8 94.546C1103.92 96.9646 1116.23 98.4476 1128.5 100.11C1136.89 101.244 1145.03 100.15 1152.89 96.7157C1158.48 94.2673 1163.06 90.7439 1165.89 85.3393C1168.1 81.1093 1169.85 76.6404 1171.81 72.2809C1172.62 70.4794 1173.26 68.5485 1174.35 66.9261C1176.1 64.3184 1179.21 63.4127 1182.01 64.3284C1184.7 65.2142 1186.75 67.6428 1186.48 70.7481C1185.34 83.8464 1183.33 96.8153 1174 106.977C1164.97 116.811 1153.2 121.011 1140.07 121.698C1137.19 121.847 1134.28 121.718 1131.39 121.718Z" fill="#D4F1F0"/>
<path d="M544.631 393.666C555.322 387.386 565.496 381.404 575.878 375.303C575.51 374.397 575.142 373.511 574.784 372.616C572.119 365.997 569.265 359.448 566.858 352.729C564.72 346.738 565.884 342.975 569.683 341.462C573.641 339.89 577.072 342.04 579.677 347.793C584.212 357.845 588.707 367.908 593.232 377.97C593.59 378.767 593.998 379.533 594.893 380.24C594.774 378.508 594.694 376.786 594.525 375.064C593.948 369.032 593.083 363.021 592.844 356.979C592.665 352.59 592.864 348.091 593.67 343.791C594.823 337.601 599.169 334.864 605.236 336.386C609.054 337.342 612.635 339.213 616.374 340.507C622.749 342.717 629.034 345.474 635.597 346.777C646.557 348.947 657.396 342.249 661.215 331.738C664.03 323.995 662.1 316.948 656.74 311.106C647.491 301.023 633.857 293.26 615.867 300.137C608.1 303.113 600.919 306.826 595.142 312.997C593.64 314.609 591.551 313.654 590.756 312.18C589.841 310.488 589.443 308.299 589.552 306.368C589.652 304.775 590.656 303.133 591.551 301.7C599.08 289.557 622.878 276.777 642.022 282.67C655.159 286.72 671.926 301.531 673.278 319.148C674.79 338.825 660.559 357.387 641.246 360.115C633.956 361.15 627.015 359.478 620.322 356.83C616.384 355.277 612.664 353.187 608.855 351.316C607.493 350.649 606.151 349.913 604.301 348.947C604.171 351.007 603.883 352.67 603.983 354.322C604.4 361.359 604.858 368.395 605.454 375.422C606.051 382.569 606.31 389.685 604.689 396.742C604.47 397.707 604.211 398.673 603.863 399.598C601.158 406.715 593.68 408.098 589.314 401.888C586.072 397.279 583.844 391.944 581.189 386.918C580.612 385.823 580.125 384.669 579.558 383.455C578.921 383.763 578.484 383.902 578.136 384.161C564.849 393.945 549.922 401.499 538.316 413.583C535.303 416.718 531.693 417.126 528.73 415.294C525.865 413.523 524.672 410.179 525.905 406.187C533.861 380.409 539.202 354.013 544.373 327.578C545.009 324.313 546.014 321.088 547.118 317.943C547.665 316.371 548.629 314.838 549.753 313.594C551.344 311.842 553.532 311.474 555.74 312.33C557.977 313.196 559.091 314.987 559.25 317.366C559.29 317.993 559.25 318.64 559.141 319.257C556.008 336.954 552.955 354.66 549.674 372.327C548.53 378.448 546.799 384.46 545.337 390.521C545.129 391.357 544.96 392.213 544.631 393.666Z" fill="#D4F1F0"/>
<path d="M1148.92 244.42C1148.55 240.737 1147.76 236.945 1147.93 233.192C1148.1 229.231 1150.35 226.056 1153.8 223.916C1156.65 222.145 1159.32 222.553 1161.02 225.439C1162.27 227.559 1163.11 229.988 1163.76 232.376C1164.99 236.985 1165.85 241.692 1167.09 246.291C1167.56 248.013 1167.26 249.078 1165.8 249.924C1162.45 251.874 1159.08 251.665 1155.69 250.023C1154.89 249.635 1154.14 249.147 1153.35 248.699C1147.31 253.019 1140.98 252.661 1135.32 248.739C1126.34 242.499 1124.95 233.65 1128.84 223.478C1118.38 223.657 1108.67 221.627 1099.03 219.258C1082.83 215.267 1067.16 209.932 1052.75 201.213C1039.35 193.111 1029.39 181.994 1022.39 168.089C1019.81 162.944 1018.25 157.519 1017.77 151.756C1017.66 150.462 1016.98 149.218 1016.61 147.944C1016.08 146.143 1015.14 144.331 1015.18 142.54C1015.27 138.101 1019.84 135.593 1023.82 137.643C1024.91 138.21 1025.93 139.066 1026.76 139.992C1036.26 150.642 1048.36 155.797 1062.36 156.743C1072.9 157.449 1083.48 157.728 1094.02 158.425C1105.36 159.181 1116.31 161.849 1126.91 165.949C1138.68 170.498 1146.42 178.719 1149.66 191.001C1150.48 194.147 1151.32 197.302 1151.85 200.507C1153.2 208.748 1150.8 215.655 1144.18 220.97C1143.61 221.428 1143.24 222.443 1143.22 223.21C1143.11 226.822 1143.18 230.435 1143.14 234.048C1143.1 239.553 1145.06 242.887 1148.92 244.42ZM1135.52 211.345C1135.8 209.365 1136.18 207.782 1136.22 206.19C1136.58 192.066 1132.35 182.89 1119.57 178.391C1114.3 176.54 1108.93 174.559 1103.45 173.822C1093.46 172.489 1083.36 171.862 1073.28 171.264C1062.17 170.607 1051.11 169.841 1040.48 166.178C1040.21 166.089 1039.88 166.208 1039.29 166.258C1039.99 167.213 1040.49 167.95 1041.04 168.647C1045.87 174.838 1051.81 179.764 1058.39 184.014C1074.82 194.594 1092.9 200.775 1111.92 204.587C1119.76 206.17 1127.9 206.777 1135.52 211.345Z" fill="#D4F1F0"/>
<path d="M926.863 407.839C926.505 408.287 925.888 409.034 925.292 409.81C917.515 419.913 908.107 428.094 896.69 433.837C891.489 436.455 886.019 438.336 880.132 438.535C867.999 438.943 860.272 430.244 862.41 418.27C863.136 414.219 864.638 410.278 866.11 406.406C867.383 403.032 869.252 399.887 870.595 396.543C872.097 392.78 873.638 388.968 874.583 385.047C876.512 377.015 874.056 373.044 865.931 371.232C855.021 368.803 844.698 371.451 834.943 376.169C826.808 380.11 820.493 386.301 815.868 394.144C813.084 398.862 811.453 403.818 812.596 409.412C812.805 410.437 812.646 411.572 812.487 412.637C812.169 414.697 810.667 415.573 808.957 414.757C806.997 413.821 804.949 412.567 803.616 410.905C799.648 405.958 799.181 400.156 800.613 394.174C803.825 380.777 811.204 369.898 822.213 361.976C836.852 351.435 853.221 347.225 871.202 351.555C872.077 351.764 872.932 352.062 873.787 352.361C890.137 358.084 898.063 371.361 894.313 388.282C892.673 395.707 889.391 402.773 886.745 409.969C885.572 413.164 884.12 416.26 882.797 419.405C882.956 419.614 883.115 419.813 883.275 420.022C885.164 419.375 887.143 418.907 888.933 418.041C900.877 412.318 910.096 403.709 916.192 391.865C916.689 390.899 917.127 389.904 917.694 388.978C921.045 383.554 928.414 382.628 932.094 387.764C938.608 396.841 947.34 403.022 956.648 408.705C959.552 410.477 962.237 412.707 964.713 415.055C968.512 418.678 970.66 423.277 970.839 428.542C970.909 430.443 970.461 432.523 969.666 434.255C968.622 436.554 966.444 437.609 963.868 437.5C961.262 437.38 959.164 436.096 958.488 433.648C956.36 425.964 950.711 421.863 944.167 418.29C938.33 415.095 932.77 411.423 926.863 407.839Z" fill="#D4F1F0"/>
<path d="M906.595 -23.8253C899.067 4.2623 892.404 31.9617 898.59 60.7262C898.928 60.8456 899.256 60.965 899.594 61.0845C900.489 60.4176 901.543 59.8901 902.259 59.074C905.004 55.9586 907.709 52.8135 910.305 49.5588C913.855 45.1098 917.137 40.4418 920.797 36.0823C926.495 29.3043 934.998 29.9512 939.493 37.5753C941.402 40.81 942.596 44.4827 944.068 47.9763C945.291 50.8925 946.405 53.8486 947.658 56.7449C948.513 58.7256 950.114 59.4422 952.272 59.3029C960.337 58.7754 965.419 53.0822 964.107 45.0998C963.56 41.7755 961.789 38.5208 960.019 35.5648C958.657 33.2855 956.21 31.693 954.639 29.5133C952.66 26.7662 950.492 23.9097 949.468 20.7645C947.558 14.8723 952.123 9.85593 958.309 10.5327C963.092 11.0603 967.07 13.3296 970.382 16.7136C981.719 28.2791 984.076 41.9646 979.451 57.0734C975.573 69.7536 960.626 79.1991 947.439 77.5668C940.527 76.7108 935.266 73.1874 931.577 67.3649C929.747 64.4785 928.235 61.403 926.396 58.0687C925.709 58.8948 925.123 59.6214 924.516 60.328C921.184 64.2496 918.012 68.3303 914.442 72.0229C912.274 74.2723 909.678 76.2331 906.973 77.7957C899.654 82.0258 891.927 80.8812 885.85 74.969C881.833 71.0575 879.545 66.1904 878.282 60.8157C875.766 50.1162 876.104 39.2673 876.81 28.4284C877.934 11.3588 881.594 -5.19314 887.083 -21.3669C887.7 -23.1784 888.486 -23.9248 890.495 -23.8552C895.745 -23.7158 900.976 -23.8253 906.595 -23.8253Z" fill="#D4F1F0"/>
<path d="M995.135 460.86C1000.05 460.113 1004.2 459.257 1008.4 458.879C1015.32 458.262 1022.26 457.874 1029.21 457.585C1030.99 457.515 1031.74 457.177 1031.94 455.286C1032.69 448.189 1033.56 441.103 1034.47 434.016C1034.71 432.145 1035.09 430.254 1035.69 428.472C1037.17 424.093 1040.88 421.644 1044.97 422.142C1049.04 422.64 1052.16 425.924 1052.4 430.552C1052.58 434.056 1052.37 437.599 1052.04 441.103C1051.23 449.742 1050.35 458.371 1049.26 466.981C1049.01 469.051 1048.08 471.171 1046.99 472.982C1045.41 475.6 1042.85 477.193 1039.73 476.974C1028.72 476.207 1018 478.437 1007.22 480.009C998.725 481.244 990.282 482.826 981.809 484.15C979.959 484.438 978 484.598 976.16 484.339C969.069 483.354 964.833 477.053 966.523 470.096C966.971 468.275 967.747 466.503 968.542 464.791C976.667 447.443 986.612 431.229 998.546 416.22C1002.25 411.562 1005.49 406.536 1008.96 401.688C1009.79 400.514 1010.62 399.3 1011.61 398.275C1015.72 394.015 1021.86 393.059 1026.77 395.816C1031.68 398.573 1034.15 404.356 1032.52 410.029C1031.85 412.328 1030.82 414.667 1029.39 416.578C1025.69 421.575 1021.63 426.322 1017.78 431.219C1010.9 439.938 1004.06 448.697 997.223 457.456C996.577 458.302 996.109 459.277 995.135 460.86Z" fill="#D4F1F0"/>
<path d="M265.518 74.8888C268.532 72.5598 270.948 70.5194 273.544 68.7378C275.155 67.633 276.965 66.6576 278.824 66.0704C281.997 65.0651 285.209 66.379 286.89 68.9867C288.59 71.6143 288.342 74.9187 286.223 77.5662C285.826 78.0539 285.358 78.4819 284.901 78.9198C277.014 86.6136 269.128 94.2874 261.252 101.991C259.641 103.574 258.139 105.266 256.498 106.818C254.41 108.789 252.898 110.909 254.111 113.895C250.372 115.906 246.235 113.855 245.758 109.376C245.439 106.43 245.817 103.205 246.712 100.369C248.721 93.959 252.948 88.8033 257.224 83.7571C258.04 82.8016 258.885 81.856 259.82 80.791C258.676 79.3279 257.503 77.9843 256.498 76.5212C242.774 56.605 249.696 28.388 271.187 17.2903C298.147 3.36596 325.695 3.34605 352.983 15.6879C366.101 21.6199 378.283 29.6023 391.013 36.4102C398.959 40.6602 407.143 44.4822 415.258 48.4136C416.541 49.0307 418.212 48.9411 419.366 49.6976C420.529 50.464 421.911 51.8176 422.021 53.0219C422.12 54.2262 421.066 56.1273 419.982 56.7046C418.232 57.6302 416.044 58.0383 414.025 58.088C405.522 58.317 397.507 55.8685 389.949 52.3949C378.8 47.269 367.871 41.6356 356.961 36.0021C342.014 28.2785 326.271 23.72 309.385 23.8992C297.193 24.0286 285.895 27.9003 275.334 33.693C269.029 37.1467 265.299 42.9992 263.758 50.026C262.366 56.3662 262.565 62.7958 263.698 69.1658C264.017 70.9872 264.812 72.7191 265.518 74.8888Z" fill="#D4F1F0"/>
<path d="M816.216 50.255C817.429 49.2199 818.623 48.1748 819.846 47.1596C827.981 40.4014 838.473 42.9992 841.924 53.012C843.366 57.2022 843.375 61.8802 844.261 66.2894C845.355 71.7536 846.468 77.2278 847.98 82.5926C849.074 86.4842 852.028 88.6241 856.105 89.2114C858.512 89.5498 860.938 89.9379 863.275 90.6147C868.576 92.1475 871.788 96.1089 871.669 100.638C871.549 105.375 868.198 109.177 862.838 110.67C851.898 113.706 838.503 109.207 831.213 99.9408C825.693 92.9338 822.899 84.8021 821.676 76.0534C821.546 75.0979 821.407 74.1523 821.198 72.6992C818.643 74.0926 816.455 75.2969 814.267 76.4814C812.208 77.5961 810.229 78.9398 808.061 79.7758C800.026 82.8812 792.229 77.4468 792.517 68.8374C792.627 65.4334 793.343 62.0295 793.989 58.6653C798.604 34.8177 801.219 10.8009 800.473 -13.5343C800.394 -16.1321 800.712 -18.7597 800.99 -21.3575C801.169 -23.0893 802.055 -24.0349 804.063 -23.8856C806.49 -23.6964 808.966 -23.6069 811.373 -23.9055C814.277 -24.2638 815.281 -22.8803 815.53 -20.3622C816.405 -11.285 818.026 -2.20774 817.986 6.85953C817.927 20.127 816.673 33.3845 815.918 46.642C815.858 47.707 815.739 48.7819 815.649 49.8469C815.828 49.9962 816.027 50.1256 816.216 50.255Z" fill="#D4F1F0"/>
<path d="M200.628 55.9984C204.347 53.5101 207.132 50.5541 207.112 45.7467C207.102 43.6168 206.585 42.3627 203.989 42.0939C198.609 41.5266 195.526 37.9634 195.695 33.166C195.874 28.1795 199.812 23.9992 204.745 23.631C207.808 23.402 210.503 24.4272 212.591 26.6268C213.944 28.0501 214.869 27.8212 216.172 26.6567C219.961 23.2926 221.154 17.2809 218.956 11.5081C216.45 12.0157 214.103 11.7768 212.93 8.98002C211.667 5.97419 212.482 3.29681 214.461 0.91802C219.344 -4.9543 227.767 -3.58078 230.989 3.67502C233.227 8.72124 233.118 14.086 232.451 19.4208C231.457 27.4828 227.429 33.6438 220.339 37.6648C218.877 38.4909 218.359 39.3668 218.568 41.0887C220.14 53.6793 214.889 62.7566 204.128 69.037C203.114 69.6242 202.279 70.9678 201.911 72.1423C199.007 81.2593 193.348 87.918 184.716 92.0584C177.377 95.5719 170.505 94.8055 164.18 89.7095C154.205 81.6774 150.525 71.0176 152.107 58.6061C152.902 52.3655 154.036 46.0055 156.204 40.1431C164.776 16.9226 176.82 -4.22773 194.681 -21.7153C196.222 -23.2282 197.734 -23.9747 199.912 -23.8353C202.607 -23.6562 205.332 -23.7855 208.037 -23.7656C208.216 -23.7656 208.385 -23.696 209.151 -23.5268C208.265 -22.1532 207.599 -20.8494 206.684 -19.7446C195.785 -6.63637 185.73 7.05907 178.729 22.6954C175.05 30.9166 171.807 39.3668 169.033 47.9364C166.915 54.4756 166.248 61.393 167.531 68.3104C168.367 72.7992 170.554 76.5814 173.737 79.8261C175.517 81.6376 177.546 82.1054 179.913 81.1698C184.507 79.3583 187.799 76.2131 189.897 71.7342C190.524 70.4005 190.325 69.6441 189.022 68.8877C187.958 68.2606 186.983 67.3648 186.198 66.3994C183.334 62.8461 183.523 57.8696 186.526 54.7443C189.46 51.6887 194.233 51.3105 197.933 53.8884C198.838 54.4557 199.633 55.1823 200.628 55.9984Z" fill="#D4F1F0"/>
<path d="M659.713 236.119C660.479 229.142 661.066 222.125 662.11 215.187C662.498 212.58 663.671 209.982 664.964 207.643C666.734 204.438 670.185 203.552 673.109 205.105C676.57 206.936 678.101 210.947 676.739 214.232C676.311 215.257 676.103 216.501 676.212 217.596C678.987 244.997 688.215 269.73 706.196 290.95C715.226 301.6 726.732 307.761 740.098 310.966C742.703 311.593 745.21 312.678 747.706 313.703C750.202 314.738 750.908 316.978 749.665 319.048C748.133 321.596 746.323 324.462 743.867 325.896C734.459 331.4 724.554 333.211 714.152 328.235C704.813 323.766 696.47 317.933 689.747 310.09C671.558 288.84 660.171 264.794 660.469 236.149C660.211 236.139 659.962 236.129 659.713 236.119Z" fill="#D4F1F0"/>
<path d="M1114.66 38.4905C1111.83 46.7516 1107.1 52.3651 1098.22 52.8429C1090.02 53.2908 1083.48 49.4389 1077.43 43.9847C1076.84 45.4378 1076.39 46.5924 1075.92 47.737C1071.67 57.6502 1062.13 61.731 1052.03 57.9787C1047.12 56.1573 1043.27 52.9922 1040.37 48.6526C1036.91 43.4571 1034.79 37.7043 1033.69 31.603C1032.65 25.8402 1035.67 20.8338 1040.73 19.4702C1045.86 18.0867 1051 20.7342 1053.03 26.2084C1054.29 29.5825 1054.79 33.2154 1055.92 36.6492C1056.63 38.8489 1057.85 40.8892 1058.84 42.9993C1059.22 42.9197 1059.59 42.84 1059.96 42.7604C1060.33 40.8793 1060.7 38.9882 1061.07 37.1071C1061.81 33.295 1062.33 29.4233 1063.38 25.7008C1064.76 20.8039 1067.66 17.0715 1073.01 16.1359C1078.25 15.2103 1082.06 17.7583 1085.15 21.6897C1086.94 23.959 1088.63 26.308 1090.44 28.5673C1091.72 30.1797 1093.1 31.7025 1094.44 33.2652C1094.74 33.1059 1095.05 32.9566 1095.35 32.7974C1095.52 31.9812 1095.65 31.1551 1095.88 30.3489C1096.9 26.8056 1097.48 23.0234 1099.11 19.7887C1103.52 11.0399 1113.35 8.89006 1121.07 14.9117C1123.88 17.1113 1126.25 19.928 1128.58 22.6651C1133.94 28.9057 1139.18 35.2359 1144.38 41.6059C1145.79 43.3377 1147.23 45.189 1148.04 47.2294C1150.06 52.2855 1146.97 57.0929 1141.56 57.063C1138.89 57.0431 1136.01 56.217 1133.59 55.0226C1126.99 51.7879 1121.85 46.672 1117.04 41.2276C1116.34 40.4314 1115.66 39.6352 1114.66 38.4905Z" fill="#D4F1F0"/>
<path d="M20.6849 166.139C20.307 153.05 27.4773 139.425 37.9194 127.212C43.2598 120.962 48.9881 115.039 54.5572 108.998C60.8523 102.17 66.0833 94.6257 69.8126 86.086C70.3198 84.9314 70.7475 83.6076 71.6226 82.7815C72.5674 81.8858 74.1884 80.7909 75.1431 81.0696C76.2868 81.3981 77.6393 83.0105 77.7984 84.2148C78.0669 86.1954 77.7586 88.3951 77.1719 90.3359C74.5265 98.9852 70.2999 106.838 64.5717 113.835C61.1308 118.025 57.5506 122.106 53.861 126.087C48.4113 131.97 44.1051 138.608 40.2366 145.595C35.7216 153.757 34.1006 162.516 34.3591 171.722C34.5182 177.336 36.5371 182.312 39.6995 186.851C43.2001 191.887 48.7394 194.167 54.6268 192.554C62.0656 190.514 68.5795 187.03 71.9309 179.446C73.711 175.405 73.542 171.543 71.1154 167.831C68.2911 163.521 62.5927 163.193 59.818 167.512C58.2567 169.941 57.3915 172.897 56.5661 175.723C55.5915 179.088 53.2743 180.322 50.072 178.769C47.4963 177.515 46.293 175.226 45.5968 172.618C41.957 158.923 53.9903 146.641 68.2115 149.517C78.226 151.547 84.7996 158.962 86.8184 170.359C87.614 174.858 87.0969 179.197 85.5455 183.427C79.7177 199.372 57.7594 210.211 41.5493 205.234C35.5028 203.373 30.7889 199.84 27.4375 194.465C22.7137 186.881 20.5855 178.59 20.6849 166.139Z" fill="#D4F1F0"/>
<path d="M1279.55 62.5769C1279.55 69.9322 1279.55 76.8695 1279.55 83.8367C1279.24 83.976 1279 84.185 1278.77 84.1751C1264.81 83.3191 1250.76 83.1499 1236.9 81.3982C1220.28 79.2981 1208.6 69.544 1201.12 54.6244C1195.8 44.0144 1193.81 32.6081 1192.33 20.973C1190.46 6.40166 1191.27 -8.07013 1192.97 -22.5519C1193.01 -22.9002 1193.15 -23.2287 1193.27 -23.6865C1197.99 -23.6865 1202.64 -23.6865 1207.7 -23.6865C1207.7 -22.5817 1207.69 -21.5367 1207.7 -20.5015C1207.82 -10.3792 1207.58 -0.247005 1208.15 9.84543C1208.93 23.3717 1213.69 35.7732 1220.49 47.3686C1225.86 56.5254 1234.6 60.3972 1244.68 61.1735C1255.21 61.9797 1265.78 62.129 1276.35 62.557C1277.32 62.6167 1278.31 62.5769 1279.55 62.5769Z" fill="#D4F1F0"/>
<path d="M31.7937 452.877C27.7362 427.457 27.2886 402.525 29.5163 377.363C26.6621 378.329 24.0963 379.493 21.4013 380.031C19.2631 380.459 16.9261 380.439 14.778 380.031C12.6995 379.642 11.4962 377.901 11.2475 375.711C10.9989 373.531 11.8741 371.869 13.6443 370.595C19.641 366.295 25.5881 361.906 31.6445 357.686C34.0711 355.994 36.6368 354.401 39.3319 353.197C42.3551 351.863 45.3983 352.371 47.9044 354.67C50.4105 356.979 51.2459 360.015 50.0823 363.1C45.9651 373.949 45.4679 385.326 44.8513 396.682C43.648 418.808 45.8359 440.725 49.0083 462.572C49.2171 464.025 50.2514 465.339 50.7287 466.772C51.4846 469.041 52.5586 471.35 52.6481 473.669C52.7973 477.133 50.7984 479.671 47.5066 480.875C44.3043 482.04 41.1916 481.413 39.1231 478.775C32.281 470.026 22.5748 466.652 12.431 463.955C10.5116 463.447 8.53259 463.049 6.74252 462.253C2.43638 460.352 1.77007 455.585 5.50935 452.718C7.08064 451.514 9.17901 450.737 11.1481 450.379C16.8465 449.334 22.4753 450.12 27.9947 451.743C29.029 452.061 30.0533 452.36 31.7937 452.877Z" fill="#D4F1F0"/>
<path d="M772.747 -23.6261C771.872 -18.4306 771.275 -13.4043 770.131 -8.49745C767.267 3.89415 762.921 15.7682 756.378 26.7265C755.144 28.7968 753.683 30.867 751.902 32.4595C746.482 37.3067 738.765 35.535 735.613 28.9859C735.086 27.8811 734.24 26.9156 733.445 25.9601C730.849 22.8647 727.766 20.0779 725.688 16.6739C722.336 11.1898 718.368 6.37247 713.436 2.32156C701.392 -7.56186 689.021 -16.9476 673.905 -23.5465C675.287 -23.6958 675.924 -23.8252 676.56 -23.8252C684.695 -23.8352 692.83 -23.8849 700.955 -23.7854C702.307 -23.7655 703.849 -23.3475 704.963 -22.6109C717.762 -14.0712 730.422 -5.34232 739.859 7.14881C740.217 7.62656 740.744 7.96496 741.5 8.64177C746.045 -1.84878 749.436 -12.3393 750.63 -23.646C757.869 -23.6261 764.95 -23.6261 772.747 -23.6261Z" fill="#D4F1F0"/>
<path d="M759.928 347.046C760.167 339.322 762.166 332.823 765.219 326.582C765.726 325.537 766.303 324.462 766.521 323.338C769.366 309.174 782.324 301.879 796.157 306.706C807.315 310.608 815.003 322.034 814.287 334.475C813.591 346.449 808.777 356.72 799.588 364.543C785.128 376.865 764.105 369.898 760.445 351.704C760.097 349.942 760.047 348.121 759.928 347.046ZM798.633 338.566C798.812 332.763 795.123 328.264 790.479 327.568C784.661 326.702 780.106 329.22 779.112 334.316C778.147 339.243 777.113 344.269 777.153 349.246C777.192 355.207 783.418 358.353 788.241 355.128C794.437 350.987 797.52 344.787 798.633 338.566Z" fill="#D4F1F0"/>
<path d="M104.431 295.569C111.541 294.802 118.652 294.036 126.011 293.25C125.047 289.517 124.122 286.412 123.485 283.247C123.097 281.326 122.908 279.295 123.068 277.345C123.386 273.513 126.22 270.367 129.84 269.382C133.579 268.367 137.726 269.691 139.845 273.045C140.968 274.816 141.784 276.966 142.112 279.037C143.783 289.696 146.358 300.107 149.988 310.259C150.655 312.121 151.202 314.051 151.55 316.002C151.987 318.481 151.231 320.7 149.173 322.253C147.104 323.815 144.529 324.174 142.57 322.721C139.884 320.72 137.249 318.361 135.379 315.614C133.38 312.678 132.137 309.174 130.864 305.8C130.148 303.889 129.293 303.72 127.443 304.128C119.338 305.92 111.233 307.781 103.039 309.065C99.3888 309.642 95.4009 309.523 91.8108 308.667C85.814 307.244 83.0991 301.451 85.3566 295.698C86.4306 292.951 88.0119 290.363 89.613 287.865C95.8783 278.041 102.223 268.267 108.568 258.493C109.552 256.981 110.587 255.478 111.82 254.174C114.137 251.715 117.3 251.208 119.975 252.641C122.511 254.005 123.973 256.901 123.257 260.016C122.71 262.365 121.924 264.754 120.74 266.834C115.987 275.145 111.044 283.336 106.161 291.567C105.525 292.642 104.819 293.668 104.142 294.713C104.222 295.001 104.331 295.28 104.431 295.569Z" fill="#D4F1F0"/>
<path d="M485.091 358.731C486.583 357.019 487.548 356.093 488.284 355.018C491.715 350.062 493.475 344.548 493.674 338.506C493.753 335.899 493.843 333.261 494.27 330.683C494.738 327.827 496.389 325.707 499.312 324.89C502.346 324.044 504.882 325.139 506.91 327.309C510.938 331.609 512.291 336.924 511.803 342.607C510.898 353.247 506.741 362.563 499.183 370.127C489.149 380.16 476.688 378.677 468.99 366.743C464.913 360.423 463.053 353.356 462.646 345.961C461.84 331.33 464.296 317.157 469.189 303.382C469.458 302.615 469.816 301.879 470.204 301.162C471.576 298.684 473.585 297.141 476.539 297.33C479.582 297.519 481.839 299.221 482.496 302.048C483.222 305.163 483.58 308.478 483.401 311.673C482.953 319.516 481.859 327.329 481.491 335.172C481.253 340.188 481.581 345.284 482.177 350.281C482.496 352.928 483.918 355.436 485.091 358.731Z" fill="#D4F1F0"/>
<path d="M277.372 475.978C277.462 467.797 280.336 459.984 287.586 454.201C292.051 450.638 297.053 449.065 302.782 450.707C303.617 450.946 304.572 450.936 305.457 450.837C311.802 450.08 316.764 452.509 320.593 457.426C329.663 469.081 327.843 486.329 316.555 495.775C311.821 499.736 306.471 502.463 300.275 503.2C293.105 504.046 287.327 501.508 283.051 495.715C278.914 490.122 277.392 483.692 277.372 475.978ZM300.265 467.279C299.331 467.956 297.819 468.494 297.332 469.519C295.283 473.799 295.492 478.267 297.272 482.597C297.521 483.204 298.943 483.931 299.44 483.722C302.254 482.517 304.631 480.616 305.288 477.471C306.014 474.008 304.8 470.882 302.692 468.145C302.354 467.707 301.449 467.687 300.265 467.279Z" fill="#D4F1F0"/>
<path d="M1241.26 147.059C1254.25 151.129 1266.88 155.091 1279.55 159.072C1279.55 164.656 1279.55 170.07 1279.55 175.723C1275.27 174.639 1271.11 173.574 1266.96 172.529C1255.19 169.553 1243.27 167.552 1231.18 166.587C1228.84 166.397 1226.48 166.099 1224.22 165.512C1213.07 162.625 1209.61 151.06 1217.67 142.838C1222.52 137.882 1227.95 133.473 1233.29 129.024C1237.39 125.62 1241.73 122.494 1246.01 119.329C1247.24 118.433 1248.6 117.637 1250.02 117.13C1252.81 116.124 1255.41 116.672 1257.51 118.812C1259.6 120.952 1260.22 123.629 1259 126.316C1258.14 128.247 1256.78 130.039 1255.35 131.611C1251.4 135.961 1247.3 140.161 1243.28 144.441C1242.61 145.128 1242.1 145.964 1241.26 147.059Z" fill="#D4F1F0"/>
<path d="M217.743 237.851C219.175 236.666 220.04 235.89 220.975 235.193C225.878 231.55 231.954 232.914 234.679 238.398C235.544 240.15 236.24 242.13 236.409 244.061C236.916 249.635 237.205 255.229 237.384 260.822C237.444 262.883 237.115 265.062 234.758 266.028C232.451 266.983 230.353 266.207 228.772 264.654C226.991 262.902 225.579 260.772 224.068 258.752C223.431 257.906 222.984 256.931 222.367 255.866C221.711 256.224 221.243 256.453 220.796 256.722C215.744 259.817 210.821 259.369 206.067 256.075C201.99 253.258 199.017 249.376 197.535 244.778C195.715 239.144 193.945 233.312 193.457 227.46C192.811 219.676 193.278 211.773 193.587 203.94C193.716 200.686 195.407 197.889 198.31 196.087C202.746 193.34 208.763 194.684 211.418 199.631C213.118 202.816 214.192 206.528 214.69 210.121C215.595 216.65 215.794 223.269 216.41 229.838C216.639 232.346 217.226 234.805 217.743 237.851Z" fill="#D4F1F0"/>
<path d="M501.381 448.09C500.446 449.125 499.75 449.931 499.024 450.697C494.042 455.933 489.069 461.178 484.027 466.354C482.844 467.578 481.491 468.683 480.059 469.608C475.037 472.863 469.299 471.25 467.081 465.687C465.997 462.97 465.361 459.924 465.251 456.998C464.744 443.909 466.952 431.219 472.034 419.136C473.346 416.011 475.365 413.164 477.284 410.338C478.17 409.034 479.522 407.979 480.815 407.013C482.565 405.689 484.574 405.122 486.652 406.217C488.811 407.362 489.159 409.482 488.9 411.612C488.443 415.284 487.866 418.947 487.19 422.59C485.509 431.637 483.739 440.675 482.505 450.08C483.172 449.473 483.878 448.906 484.494 448.239C488.671 443.73 492.769 439.152 497.005 434.703C502.534 428.89 508.72 430.303 511.833 437.609C513.911 442.486 516.795 447.005 519.182 451.752C520.923 455.196 522.524 458.72 524.005 462.283C524.463 463.368 524.324 464.701 524.542 466.702C522.514 465.756 520.883 465.368 519.739 464.403C514.001 459.595 508.372 454.649 502.733 449.732C502.246 449.344 501.918 448.776 501.381 448.09Z" fill="#D4F1F0"/>
<path d="M78.5049 -23.676C82.811 -23.676 86.8486 -23.676 91.2841 -23.676C90.5979 -16.7885 90.0708 -10.0602 89.2255 -3.37172C88.1713 5.05854 86.8785 13.449 85.6553 21.8594C84.8796 27.2241 80.7823 30.8868 75.9192 29.7322C66.9191 27.6023 57.9588 28.5876 48.9586 29.1052C47.7951 29.1749 46.6017 29.2047 45.4481 29.0355C40.6049 28.3189 37.7905 24.3775 38.974 19.6199C42.3751 5.95432 45.9453 -7.67145 49.3863 -21.3271C49.8537 -23.1784 50.6493 -24.0144 52.7178 -23.8651C55.6714 -23.6561 58.6449 -23.8154 62.0859 -23.8154C59.2416 -10.9659 56.477 1.51524 53.5929 14.5538C55.9996 14.5538 58.0085 14.5438 60.0273 14.5538C62.8317 14.5836 65.6362 14.4742 68.4208 14.723C70.36 14.8922 71.1954 14.2751 71.5534 12.4039C73.6717 1.41571 75.8595 -9.56254 78.0076 -20.5507C78.2065 -21.5262 78.3259 -22.5115 78.5049 -23.676Z" fill="#D4F1F0"/>
<path d="M1078.41 265.182C1076.4 267.093 1074.83 269.123 1072.79 270.417C1069.3 272.637 1065.61 274.607 1061.84 276.299C1055.47 279.166 1048.95 278.38 1042.98 275.354C1038.36 273.015 1034.17 269.78 1030 266.655C1026.63 264.137 1026.65 263.858 1023.51 266.784C1019.87 270.168 1016.49 273.821 1012.81 277.155C1010.21 279.504 1007.42 281.704 1004.48 283.625C1002.63 284.829 1000.45 285.695 998.277 286.193C992.529 287.537 988.491 283.466 990.063 277.792C991.455 272.756 993.305 267.839 995.065 262.913C998.018 254.671 1001.06 246.46 1004.06 238.229C1004.22 237.811 1004.36 237.373 1004.55 236.965C1005.59 234.795 1007.2 233.422 1009.7 234.029C1012.18 234.626 1013.29 236.577 1013.07 238.946C1012.82 241.444 1012.28 243.952 1011.51 246.341C1009.12 253.726 1006.55 261.061 1004.05 268.407C1003.78 269.243 1003.51 270.079 1003.63 271.273C1004.71 270.298 1005.83 269.352 1006.88 268.347C1010.33 265.023 1013.59 261.499 1017.21 258.374C1024.38 252.173 1029.19 252.183 1036.82 257.737C1040.1 260.116 1043.48 262.405 1047 264.396C1050.94 266.615 1055.17 266.944 1059.57 265.52C1062.74 264.495 1065.96 263.569 1069.23 262.923C1072.3 262.315 1075.32 262.624 1078.41 265.182Z" fill="#D4F1F0"/>
<path d="M691.02 451.494C687.798 451.046 685.381 449.672 683.731 447.244C682.159 444.944 680.618 442.536 679.564 439.968C676.043 431.358 672.652 422.699 669.43 413.98C668.226 410.726 668.714 407.451 671.588 405.082C674.482 402.703 677.445 403.569 680.737 404.684C688.753 407.401 696.917 409.671 705.062 412.01C705.898 412.249 707.002 411.84 707.907 411.522C711.397 410.308 714.52 410.805 717.145 413.463C719.751 416.1 719.94 419.246 718.667 422.52C718.15 423.844 717.364 425.118 716.469 426.233C711.338 432.543 706.176 438.823 700.945 445.044C699.672 446.557 698.26 448.05 696.619 449.105C694.938 450.19 692.9 450.717 691.02 451.494ZM686.028 419.226C687.649 423.625 689.051 427.457 690.652 431.796C693.526 427.865 696.032 424.441 698.757 420.709C694.362 420.191 690.533 419.753 686.028 419.226Z" fill="#D4F1F0"/>
<path d="M101.626 514.457C103.436 511.501 104.451 509.6 105.684 507.858C111.89 499.03 123.744 498.592 130.457 506.902C135.678 513.372 133.132 521.046 124.957 522.439C121.586 523.017 119.995 524.47 118.931 527.476C117.976 530.183 116.713 532.84 115.171 535.259C110.368 542.823 101.686 544.256 94.9236 538.394C88.5291 532.85 83.6063 526.012 79.4593 518.667C77.5897 515.363 77.6692 511.849 80.0958 508.734C82.4925 505.658 85.8141 504.773 89.5434 505.34C93.3623 505.917 96.4253 508.007 99.0706 510.665C100.015 511.61 100.602 512.904 101.626 514.457Z" fill="#D4F1F0"/>
<path d="M1020.68 3.04739C1011.13 3.4057 1001.57 3.78392 992.002 4.08251C990.122 4.14223 988.193 4.08251 986.343 3.73415C982.574 3.02748 979.989 -0.0579766 979.909 -3.61123C979.83 -7.055 982.137 -10.2201 985.806 -11.1059C988.153 -11.6732 990.62 -11.8822 993.036 -11.9818C1011.25 -12.7183 1029.46 -13.3752 1047.68 -14.0819C1049.04 -14.1316 1050.38 -14.3307 1051.72 -14.47C1057.43 -15.0772 1061.93 -11.6334 1062.21 -6.46776C1062.49 -1.2623 1058.35 2.60945 1052.63 2.58955C1047.31 2.55969 1041.98 2.58955 1036.65 2.58955C1031.33 2.58955 1026 2.58955 1020.68 2.58955C1020.68 2.73884 1020.68 2.89809 1020.68 3.04739Z" fill="#D4F1F0"/>
<path d="M1229.36 -23.7356C1229.21 -23.7157 1229.64 -23.8052 1230.07 -23.8052C1233.95 -23.8152 1237.83 -23.8152 1242.07 -23.8152C1242.85 -18.2016 1243.5 -12.6578 1244.44 -7.17362C1245.23 -2.64497 1246.19 1.86378 1247.39 6.30286C1248.74 11.2993 1252.16 14.3649 1257.28 15.181C1262.71 16.0469 1268.18 16.7038 1273.64 17.3209C1275.5 17.5299 1277.4 17.3508 1279.46 17.3508C1279.46 22.3273 1279.46 26.8958 1279.46 31.5936C1279.23 31.6733 1278.9 31.9121 1278.58 31.8922C1269.4 31.2652 1260.18 31.0363 1251.07 29.8618C1241.04 28.5679 1234.56 22.387 1231.84 12.7126C1230.53 8.0546 1229.72 3.15768 1229.47 -1.66957C1229.07 -8.93532 1229.36 -16.2409 1229.36 -23.7356Z" fill="#D4F1F0"/>
<path d="M1226.39 209.335C1226.35 214.112 1222.67 217.108 1218.49 216.322C1210.21 214.769 1201.93 213.665 1193.51 215.048C1192.45 215.217 1191.34 215.167 1190.26 215.078C1183.27 214.461 1179.66 207.872 1182.94 201.641C1183.74 200.138 1184.78 198.745 1185.87 197.421C1191.14 191.011 1196.39 184.572 1201.79 178.271C1206.57 172.698 1212.55 173.972 1214.9 180.919C1215.07 181.426 1215.33 181.904 1215.56 182.382C1217.42 186.264 1219.45 190.076 1221.1 194.037C1222.8 198.108 1224.15 202.328 1225.61 206.498C1226.01 207.613 1226.23 208.768 1226.39 209.335Z" fill="#D4F1F0"/>
<path d="M630.436 -23.8259C636.989 -23.8259 643.573 -23.4577 650.087 -23.9454C655.159 -24.3236 658.858 -22.741 662.2 -19.1082C668.186 -12.6088 674.651 -6.53741 680.409 0.161015C685.898 6.54094 689.508 14.0655 690.513 22.5754C690.801 25.0537 690.841 27.6713 690.383 30.1099C690.035 31.9512 689.011 33.8721 687.768 35.2954C685.64 37.724 683.392 37.5249 681.413 34.9371C680.389 33.5934 679.623 32.0109 678.967 30.4483C674.173 18.9923 667.928 8.53156 658.56 0.151062C652.235 -5.50229 646.039 -11.3049 639.575 -16.799C636.721 -19.2176 633.36 -21.0391 630.227 -23.1292C630.297 -23.3581 630.366 -23.5871 630.436 -23.8259Z" fill="#D4F1F0"/>
<path d="M850.267 120.195C850.775 120.275 851.779 120.345 852.724 120.613C857.666 122.017 862.619 123.43 867.532 124.943C869.073 125.421 870.565 126.117 871.997 126.874C876.363 129.143 877.795 133.005 875.955 137.563C873.827 142.829 871.709 148.104 869.391 153.289C868.636 154.981 867.512 156.614 866.199 157.908C864.091 159.988 861.048 160.396 858.701 158.893C854.653 156.295 850.138 155.728 845.544 155.3C844.111 155.17 842.64 155.111 841.257 154.752C836.504 153.498 833.848 149.228 834.753 144.401C834.972 143.257 835.3 142.112 835.718 141.027C837.588 136.14 839.507 131.273 841.426 126.396C842.998 122.395 845.911 120.245 850.267 120.195ZM858.601 136.688C856.911 136.658 855.26 135.115 854.245 137.484C853.261 139.793 852.316 142.122 851.282 144.63C852.624 145.387 853.828 146.073 855.081 146.79C856.284 143.346 857.378 140.201 858.601 136.688Z" fill="#D4F1F0"/>
<path d="M512.38 199.193C512.38 199.73 512.529 200.338 512.35 200.805C511.793 202.268 511.097 203.672 510.461 205.105C509.357 204.418 508.094 203.901 507.169 203.015C494.31 190.733 478.856 189.061 462.258 191.788C459.424 192.256 456.52 192.514 453.646 192.544C449.817 192.584 447.122 190.653 446.068 187.538C445.043 184.512 446.038 181.088 448.912 178.849C450.453 177.645 452.243 176.649 454.063 175.952C467.041 170.976 480.059 171.464 492.958 176.191C500.267 178.869 505.608 184.174 509.755 190.544C511.366 193.012 511.962 196.147 513.017 198.974C512.808 199.044 512.599 199.113 512.38 199.193Z" fill="#D4F1F0"/>
<path d="M685.74 362.911C686.117 360.692 686.296 358.422 686.913 356.272C688.912 349.355 693.258 344.667 700.557 343.632C707.966 342.577 713.545 345.891 717.424 352.072C723.6 361.936 720.457 375.143 710.671 381.016C702.656 385.823 694.163 383.444 689.797 375.193C687.748 371.341 685.789 367.48 685.74 362.911Z" fill="#D4F1F0"/>
<path d="M902.906 193.948C897.904 192.793 891.748 191.002 887.153 186.194C883.961 182.86 883.285 178.59 884.259 174.052C886.656 162.914 898.53 155.37 909.38 158.156C918.34 160.456 923.631 168.239 922.547 177.535C921.473 186.732 913.696 193.709 902.906 193.948ZM903.662 181.546C905.432 180.173 906.943 178.789 905.352 177.127C903.89 175.604 902.468 176.988 901.225 178.451C902.011 179.446 902.767 180.402 903.662 181.546Z" fill="#D4F1F0"/>
<path d="M66.3517 331.28C68.1716 328.702 69.6534 326.563 71.1849 324.452C73.9596 320.64 77.679 319.337 82.4127 319.167C91.2338 318.849 100.045 317.863 108.856 317.167C111.014 316.998 113.182 316.699 115.34 316.769C117.021 316.828 118.791 317.107 120.333 317.734C123.306 318.958 123.515 321.377 120.909 323.268C119.895 323.995 118.741 324.612 117.558 325C107.195 328.444 96.8527 332.017 85.9332 333.37C83.984 333.609 82.7707 334.555 81.5674 336.098C78.3552 340.218 75.2126 344.478 71.4535 348.061C65.4766 353.744 59.0721 351.575 57.2721 343.533C56.1284 338.427 55.1737 333.271 54.2289 328.115C53.6123 324.771 54.935 322.332 57.5605 321.576C60.1461 320.83 62.5528 322.203 63.9351 325.308C64.7307 327.1 65.407 328.951 66.3517 331.28Z" fill="#D4F1F0"/>
<path d="M1185.78 114.383C1194.05 114.393 1200.59 119.18 1203.77 127.57C1206.77 135.463 1204.95 144.033 1199.06 149.218C1197.79 150.333 1196.35 151.518 1194.78 151.975C1190.83 153.13 1186.8 154.255 1182.73 154.663C1180.71 154.862 1178.26 153.866 1176.45 152.712C1165.76 145.874 1163.44 131.054 1171.35 121.141C1175.04 116.503 1179.92 114.393 1185.78 114.383ZM1182.59 133.453C1182.45 135.891 1183.51 138.051 1185.6 139.763C1186.5 140.499 1187.51 141.196 1188.17 142.122C1189.25 143.605 1190.37 143.366 1191.67 142.639C1194.78 140.898 1195.9 138.091 1195.69 134.707C1195.48 131.372 1193.87 128.914 1190.67 127.68C1186.27 125.978 1182.63 128.456 1182.59 133.453Z" fill="#D4F1F0"/>
<path d="M935.803 219.856C939.473 220.313 942.397 220.781 945.34 220.98C946.076 221.03 946.952 220.343 947.618 219.806C950.034 217.855 952.64 217.387 955.444 218.771C957.99 220.025 959.492 222.941 958.965 226.096C958.438 229.291 957.374 232.406 956.837 235.601C956.33 238.657 956.19 241.762 955.912 244.858C955.723 246.988 954.261 247.814 952.451 247.973C950.034 248.192 948.075 246.968 947.24 244.818C946.245 242.25 945.748 239.483 945.201 236.766C944.973 235.661 945.161 234.477 945.161 232.775C940.945 232.775 937.076 232.894 933.228 232.745C929.449 232.596 925.6 232.576 921.93 231.809C914.462 230.247 912.214 223.001 917.425 217.407C919.742 214.919 922.587 212.908 925.242 210.739C927.828 208.628 930.473 206.598 933.098 204.538C933.735 204.04 934.371 203.513 935.067 203.114C938.12 201.343 941.581 201.791 943.729 204.189C945.927 206.638 946.017 210.37 943.67 213.117C942.397 214.61 940.766 215.805 939.264 217.099C938.319 217.895 937.335 218.631 935.803 219.856Z" fill="#D4F1F0"/>
<path d="M473.177 -23.6765C480.765 -23.6765 488.393 -23.6765 495.951 -23.6765C495.951 -17.0776 495.533 -10.4986 496.09 -3.99926C496.498 0.688647 498.179 5.25711 499.352 9.87535C499.621 10.9204 500.148 11.8859 500.456 12.921C501.272 15.6481 501.371 18.3454 499.134 20.4853C496.787 22.7347 493.902 22.884 491.058 21.7494C489.248 21.0328 487.448 20.0374 485.937 18.8033C475.475 10.2536 469.249 -10.5086 473.177 -23.6765Z" fill="#D4F1F0"/>
<path d="M983.867 190.185C979.76 190.185 975.583 190.643 971.555 190.076C966.036 189.29 960.536 188.055 955.206 186.423C942.566 182.541 934.809 172.359 935.356 160.247C935.505 156.843 936.599 153.299 938.021 150.174C939.881 146.073 944.187 144.501 947.976 145.775C951.735 147.039 953.834 150.562 953.068 155.101C952.024 161.302 954.132 166.238 958.975 169.831C963.013 172.827 967.508 175.206 971.705 178.003C975.215 180.342 978.686 182.77 981.978 185.398C983.121 186.314 983.698 187.936 984.533 189.24C984.315 189.558 984.096 189.877 983.867 190.185Z" fill="#D4F1F0"/>
<path d="M812.129 446.189C816.873 446 823.824 445.721 830.765 445.452C831.939 445.402 833.113 445.303 834.286 445.373C837.926 445.592 840.601 448.06 840.909 451.364C841.208 454.519 839.139 457.585 835.718 458.361C832.914 458.998 830.01 459.367 827.136 459.436C813.859 459.765 800.583 460.024 787.306 460.113C784.363 460.133 781.369 459.586 778.475 458.939C775.76 458.331 773.751 456.639 773.324 453.654C772.976 451.155 774.438 448.319 777.471 447.333C781.101 446.149 784.989 445.243 788.778 445.193C795.829 445.114 802.87 445.741 812.129 446.189Z" fill="#D4F1F0"/>
<path d="M1279.64 206.28C1272.48 205.065 1265.83 203.911 1259.17 202.836C1254.64 202.099 1250.08 201.502 1245.56 200.775C1243.25 200.407 1240.87 200.178 1238.69 199.402C1234.22 197.809 1231.65 193.898 1231.74 189.449C1231.83 185.069 1234.6 180.899 1239.09 179.804C1242.23 179.038 1245.97 178.471 1248.89 179.466C1258.93 182.89 1268.74 187.03 1278.6 190.972C1279.09 191.161 1279.58 192.037 1279.59 192.604C1279.68 196.914 1279.64 201.223 1279.64 206.28Z" fill="#D4F1F0"/>
<path d="M497.413 242.21C497.154 237.9 496.936 233.591 496.637 229.281C496.428 226.345 497.821 224.185 500.735 223.478C502.017 223.17 503.42 223.041 504.742 223.18C510.928 223.807 517.104 224.524 523.28 225.28C524.881 225.479 526.512 225.778 528.013 226.325C533.036 228.137 533.98 233.232 529.973 236.756C527.198 239.204 524.185 241.394 521.579 244.002C517.641 247.933 513.862 252.054 510.192 256.244C507.825 258.941 505.081 260.165 502.117 259.28C499.223 258.404 497.343 255.806 497.154 252.253C497.065 250.541 497.125 248.829 497.125 247.107C497.125 245.485 497.125 243.862 497.125 242.24C497.224 242.22 497.314 242.21 497.413 242.21Z" fill="#D4F1F0"/>
<path d="M536.795 248.411C545.795 248.471 552.577 255.886 552.259 265.411C552.1 270.148 550.559 274.468 547.694 278.23C544.542 282.361 540.474 284.859 535.074 283.973C529.635 283.078 526.392 279.514 524.543 274.518C523.588 271.92 522.603 269.332 521.689 266.725C520.167 262.385 520.774 258.354 523.568 254.691C526.601 250.73 531.584 248.381 536.795 248.411ZM539.768 267.551C538.953 265.998 538.645 264.545 537.769 263.987C537.034 263.52 535.094 263.709 534.647 264.316C533.961 265.252 533.762 266.834 533.941 268.058C534.219 269.989 534.249 273.025 536.596 272.856C537.769 272.776 538.714 269.422 539.768 267.551Z" fill="#D4F1F0"/>
<path d="M942.367 478.317C942.089 479.323 941.651 481.154 941.084 482.955C939.97 486.479 938.866 490.012 937.603 493.486C935.903 498.164 933.188 499.557 928.375 498.761C924.019 498.044 919.643 497.427 915.247 496.989C908.216 496.283 905.929 492.54 908.604 486.081C910.046 482.587 911.16 478.954 912.532 475.421C914.034 471.569 916.013 470.723 920.14 471.28C923.422 471.728 926.773 471.748 930.095 471.848C930.741 471.868 931.447 471.42 932.064 471.091C937.375 468.255 942.387 471.35 942.367 478.317ZM924.834 486.071C925.441 483.533 925.958 481.393 926.475 479.213C921.99 478.815 921.96 478.098 920.687 485.255C921.97 485.503 923.253 485.762 924.834 486.071Z" fill="#D4F1F0"/>
<path d="M1202.97 300.157C1200.56 299.958 1198.1 299.948 1195.72 299.51C1192.77 298.962 1190.86 296.803 1190.72 294.205C1190.56 291.289 1192.08 289.268 1194.67 288.362C1207.72 283.804 1220.88 279.693 1234.82 278.927C1236.59 278.827 1238.44 279.036 1240.17 279.444C1242.74 280.052 1244.45 281.754 1244.89 284.441C1245.33 287.128 1244.17 289.208 1241.99 290.701C1241.03 291.348 1239.96 291.926 1238.85 292.264C1227.13 295.867 1215.38 299.46 1202.97 300.157Z" fill="#D4F1F0"/>
<path d="M501.789 110.033C501.839 114.532 499.959 117.249 496.846 117.936C493.733 118.623 490.541 117.06 489.308 113.616C484.644 100.627 480.049 87.6187 475.674 74.5304C474.122 69.8723 476.34 65.692 480.368 64.3683C484.375 63.0445 488.373 65.1546 490.322 69.6335C490.651 70.3799 490.939 71.1364 491.158 71.9227C494.459 83.3687 497.751 94.8048 501.013 106.261C501.441 107.724 501.64 109.257 501.789 110.033Z" fill="#D4F1F0"/>
<path d="M833.093 -23.7065C838.354 -23.7065 843.286 -23.7065 848.517 -23.7065C848.676 -20.6709 848.865 -17.7247 848.965 -14.7786C849.253 -5.81089 850.019 3.04735 853.37 11.5274C854.385 14.0953 855.071 17.0613 852.416 19.2908C850.148 21.1918 846.22 21.2316 843.396 18.6538C840.512 16.0262 837.667 12.9905 835.927 9.55667C830.567 -1.03341 832.198 -12.37 833.093 -23.7065Z" fill="#D4F1F0"/>
<path d="M109.99 125.958C109.93 135.224 103.048 142.928 94.2273 143.615C86.2614 144.242 80.4238 138.509 80.931 130.537C81.2691 125.222 83.636 120.593 86.5399 116.373C89.5731 111.974 96.1864 110.411 101.189 112.263C106.469 114.204 110.04 119.747 109.99 125.958ZM91.6118 131.144C94.6648 130.288 96.5046 127.501 95.8483 124.744C91.4327 125.232 90.3388 126.884 91.6118 131.144Z" fill="#D4F1F0"/>
<path d="M820.751 407.372C821.01 400.405 823.546 394.632 829.304 390.621C833.849 387.456 839.388 387.973 842.59 391.666C845.156 394.622 845.633 398.155 844.112 401.559C841.625 407.123 840.681 412.876 840.522 418.897C840.462 421.296 839.716 423.685 839.159 426.044C838.602 428.432 836.961 429.159 834.664 428.641C830.865 427.786 827.961 425.576 825.704 422.52C822.382 418.022 821.059 412.826 820.751 407.372Z" fill="#D4F1F0"/>
<path d="M1232.34 247.107C1232.31 242.051 1235.11 238.159 1239.38 237.055C1243.79 235.91 1248.23 237.97 1250.39 242.389C1251.49 244.649 1252.07 247.177 1253.17 249.436C1254.59 252.352 1256.28 255.129 1257.87 257.966C1258.7 259.459 1259.76 260.862 1260.39 262.435C1261.82 265.978 1260.91 269.611 1258.3 271.831C1255.67 274.06 1251.69 274.647 1248.71 272.408C1240.61 266.317 1235.05 258.354 1232.46 248.461C1232.32 247.943 1232.36 247.376 1232.34 247.107Z" fill="#D4F1F0"/>
<path d="M1075.57 258.075C1073.04 257.468 1070.4 257.15 1068.01 256.194C1060.51 253.198 1057.71 246.51 1060.55 238.946C1061.16 237.343 1061.88 235.79 1062.51 234.188C1064.9 228.117 1070.88 225.439 1076.89 228.117C1083.99 231.282 1087.97 237.054 1088.81 244.679C1089.64 252.253 1083.92 257.697 1075.57 258.075ZM1073.11 239.543C1071.84 240.717 1071.15 241.484 1070.34 242.091C1068.9 243.156 1068.68 245.027 1070.18 246.062C1071.16 246.739 1072.47 247.236 1073.64 247.266C1074.77 247.296 1076.14 246.868 1076.98 246.152C1077.32 245.863 1076.77 244.131 1076.24 243.305C1075.35 241.921 1074.15 240.757 1073.11 239.543Z" fill="#D4F1F0"/>
<path d="M844.36 251.745C838.692 251.397 833.013 251.088 827.344 250.67C825.554 250.541 823.744 250.282 822.024 249.804C819.528 249.118 818.006 247.346 817.887 244.718C817.758 241.971 819.19 240.031 821.696 239.075C823.098 238.538 824.679 238.12 826.161 238.159C838.145 238.518 850.128 238.976 862.102 239.493C863.405 239.553 864.777 240.04 865.951 240.648C868.109 241.782 869.272 243.683 869.173 246.182C869.073 248.789 867.711 250.7 865.324 251.576C863.763 252.153 861.983 252.343 860.302 252.372C854.991 252.472 849.671 252.412 844.35 252.412C844.36 252.193 844.36 251.974 844.36 251.745Z" fill="#D4F1F0"/>
<path d="M539.908 450.389C540.415 446.696 540.912 442.297 541.658 437.948C541.927 436.385 542.593 434.802 543.438 433.459C544.98 430.97 547.356 429.736 550.33 430.045C553.303 430.353 555.382 432.006 556.386 434.773C556.903 436.186 557.172 437.759 557.242 439.271C557.59 447.304 557.858 455.336 558.117 463.368C558.216 466.413 557.619 469.32 554.556 470.673C551.295 472.117 548.331 470.972 545.875 468.643C542.722 465.657 541.29 461.755 540.604 457.585C540.246 455.455 540.176 453.285 539.908 450.389Z" fill="#D4F1F0"/>
<path d="M133.381 35.3553C133.361 46.8611 129.771 57.053 121.705 65.334C119.448 67.6531 116.455 69.3948 113.531 70.8579C111.273 71.9826 110.14 70.9376 110.836 68.4891C111.761 65.2245 112.775 61.8902 114.406 58.9441C119.587 49.5982 121.855 39.6351 121.318 29.0351C121.208 26.8653 120.502 24.6756 119.766 22.6054C118.861 20.0773 120.134 17.5094 122.919 16.7928C125.982 16.0065 129.383 17.4497 130.686 21.1522C132.287 25.6709 133.023 30.4982 134.127 35.1861C133.878 35.2458 133.629 35.2956 133.381 35.3553Z" fill="#D4F1F0"/>
<path d="M154.384 189.996C155.716 189.509 156.96 189.011 158.232 188.593C161.276 187.588 164.08 188.026 166.686 189.957C171.409 193.46 171.181 198.984 166.019 201.841C161.912 204.11 157.735 206.29 153.449 208.171C145.543 211.634 138.91 207.325 138.77 198.695C138.721 195.749 138.8 192.704 139.496 189.867C140.232 186.861 142.301 184.562 145.682 184.154C149.033 183.756 151.351 185.478 153.121 188.145C153.499 188.732 153.916 189.32 154.384 189.996Z" fill="#D4F1F0"/>
<path d="M987.766 195.092C988.362 188.394 990.968 180.869 995.731 174.191C998.526 170.269 1003.05 169.334 1006.73 171.444C1010.35 173.524 1011.96 178.052 1009.98 182.332C1007.86 186.901 1005.14 191.191 1002.73 195.64C1000.93 198.954 998.755 202.209 1000.91 206.289C1001.12 206.688 1000.26 208.071 999.59 208.449C996.616 210.101 993.126 209.146 990.669 206.22C988.69 203.851 987.726 200.656 987.766 195.092Z" fill="#D4F1F0"/>
<path d="M184.706 372.128C184.388 373.243 184.109 375.582 183.085 377.512C180.47 382.439 177.635 387.266 174.652 391.984C173.21 394.273 170.982 395.816 168.009 395.249C165.075 394.691 163.583 392.512 162.857 389.874C160.799 382.459 160.659 375.094 165.244 368.535C166.974 366.056 169.52 363.727 172.225 362.463C178.381 359.597 184.776 364.195 184.706 372.128Z" fill="#D4F1F0"/>
<path d="M758.774 310.319C756.378 310.21 754.309 310.508 752.509 309.961C745.279 307.741 740.635 302.157 736.528 296.335C734.191 293.021 732.848 288.94 731.366 285.098C730.78 283.565 730.8 281.714 730.909 280.022C731.148 276.18 734.022 273.084 737.592 272.527C741.162 271.97 744.553 273.801 746.015 277.484C749.745 286.87 753.335 296.315 756.984 305.741C757.462 306.975 757.949 308.219 758.774 310.319Z" fill="#D4F1F0"/>
<path d="M418.978 23.1626C419.008 27.114 415.875 29.7715 411.728 29.1444C407.332 28.4776 404.21 25.7903 402.658 21.8289C399.426 13.5778 399.038 5.11769 402.39 -3.2429C403.006 -4.77568 404.12 -6.26864 405.373 -7.33362C408.834 -10.2797 413.926 -8.80668 414.741 -4.3676C416.412 4.75938 417.595 13.9759 418.978 23.1626Z" fill="#D4F1F0"/>
<path d="M22.2964 89.9181C22.4654 88.4848 22.7837 86.962 22.8036 85.4392C22.8434 81.9457 22.9428 78.4223 22.6445 74.9487C22.3063 70.8978 24.5439 68.4194 28.4821 68.9071C33.554 69.5441 38.6259 70.1712 43.6978 70.7485C49.2371 71.3855 51.4747 75.7051 48.6503 80.7712C47.7553 82.3737 46.3431 83.787 44.911 84.9714C40.7441 88.4152 36.448 91.7097 32.1816 95.024C30.1031 96.6364 27.8158 97.2038 25.3694 95.9099C23.0124 94.6757 22.3461 92.486 22.2964 89.9181Z" fill="#D4F1F0"/>
<path d="M1279.65 464.472C1271.86 458.62 1264.15 452.837 1256.46 447.034C1255.59 446.388 1254.73 445.711 1253.99 444.934C1251.45 442.267 1250.9 438.724 1252.45 435.688C1254.04 432.593 1257.52 430.672 1261.1 431.637C1264.01 432.423 1266.85 433.787 1269.44 435.34C1272.92 437.41 1277.15 439.281 1279.12 442.446C1280.75 445.074 1279.61 449.453 1279.64 453.046C1279.67 456.988 1279.65 460.929 1279.65 464.472Z" fill="#D4F1F0"/>
<path d="M774.826 424.163C777.71 424.163 780.594 424.192 783.478 424.153C788.013 424.103 791.255 426.521 791.672 430.333C792.11 434.275 789.445 437.808 784.82 438.176C777.292 438.784 769.714 438.853 762.156 439.032C760.953 439.062 759.67 438.575 758.536 438.087C756.129 437.042 754.628 435.161 754.498 432.473C754.369 429.806 755.503 427.507 757.89 426.472C760.227 425.446 762.832 424.829 765.378 424.571C768.501 424.252 771.683 424.491 774.836 424.491C774.826 424.372 774.826 424.262 774.826 424.163Z" fill="#D4F1F0"/>
<path d="M477.702 284.68C472.829 284.68 467.966 284.7 463.093 284.67C461.84 284.66 460.537 284.69 459.324 284.401C454.65 283.326 452.572 278.439 455.605 274.777C458.867 270.835 462.606 267.232 466.445 263.828C469.12 261.46 473.386 262.335 476.061 265.57C478.697 268.755 481.143 272.109 483.53 275.483C485.002 277.564 485.101 279.903 483.739 282.122C482.376 284.362 480.238 285.128 477.702 284.68Z" fill="#D4F1F0"/>
<path d="M540.335 511.282C539.529 517.443 536.934 521.972 531.912 524.948C526.83 527.963 521.231 525.565 519.948 519.802C518.635 513.93 520.127 508.426 523.488 503.648C526.85 498.881 533.433 498.881 536.884 503.588C538.505 505.818 539.211 508.704 540.335 511.282Z" fill="#D4F1F0"/>
<path d="M1138.02 17.9074C1138.14 17.2505 1138.23 15.867 1138.66 14.6029C1140.21 9.99467 1145.6 8.85007 1148.82 12.4829C1149.82 13.6076 1150.52 15.0409 1151.13 16.4244C1153.76 22.446 1156.28 28.5273 1158.89 34.5489C1160.65 38.6197 1159.81 40.5506 1155.4 40.5706C1152.78 40.5805 1149.8 39.6947 1147.6 38.2614C1140.6 33.7129 1138.51 26.4969 1138.02 17.9074Z" fill="#D4F1F0"/>
<path d="M930.732 448.09C934.242 448.806 937.067 449.364 939.881 449.961C940.935 450.18 941.999 450.419 943.024 450.747C945.132 451.414 947.051 452.459 946.604 455.057C946.166 457.635 944.088 458.202 941.83 457.913C934.948 457.027 928.066 456.112 921.214 455.057C918.877 454.698 916.968 453.405 916.411 450.876C915.854 448.328 917.067 446.398 919.146 445.173C924.188 442.197 929.27 439.281 934.451 436.554C936.728 435.35 939.115 436.196 940.14 438.047C941.174 439.908 940.507 442.167 938.29 443.611C936.042 445.074 933.675 446.358 930.732 448.09Z" fill="#D4F1F0"/>
<path d="M872.534 219.776C872.544 224.494 870.078 226.892 866.717 226.216C864.3 225.728 861.744 224.862 859.795 223.429C856.105 220.711 852.764 217.517 849.393 214.391C848.428 213.505 847.712 212.251 847.175 211.037C845.981 208.35 846.648 205.414 848.667 203.582C850.685 201.761 853.808 201.233 856.185 203.035C860.779 206.508 865.294 210.141 869.431 214.132C871.182 215.815 871.908 218.572 872.534 219.776Z" fill="#D4F1F0"/>
<path d="M227.151 349.933C227.23 343.523 231.934 338.307 237.653 338.297C243.341 338.287 248.304 343.582 248.184 349.544C248.065 355.586 243.162 360.453 237.265 360.393C231.437 360.343 227.071 355.825 227.151 349.933Z" fill="#D4F1F0"/>
<path d="M353.242 203.005C354.018 200.258 354.515 197.382 355.649 194.794C356.832 192.086 359.507 190.992 361.894 191.668C364.639 192.455 365.892 194.525 365.782 197.182C365.554 203.065 367.314 208.35 369.83 213.555C370.824 215.616 371.232 218.004 371.59 220.303C371.938 222.493 370.894 223.359 368.547 222.951C361.168 221.657 355.47 215.755 354.097 207.713C353.839 206.2 353.759 204.667 353.59 203.144C353.481 203.095 353.361 203.045 353.242 203.005Z" fill="#D4F1F0"/>
<path d="M635.359 330.305C626.418 329.558 617.418 322.581 615.121 314.231C614.186 310.857 615.2 307.821 617.726 306.388C620.431 304.865 623.723 305.442 625.851 308.458C629.979 314.29 635.001 319.108 640.978 322.96C642.917 324.214 642.519 326.005 641.266 327.03C639.555 328.444 637.348 329.24 635.359 330.305Z" fill="#D4F1F0"/>
<path d="M999.789 28.6865C999.689 32.1303 999.073 34.6285 996.706 36.3006C994.14 38.1121 990.172 37.7438 988.7 34.6086C985.906 28.6367 983.738 22.3265 981.779 16.0162C981.063 13.6972 982.524 11.408 984.901 10.2733C987.248 9.14861 989.725 9.39743 991.375 11.3383C995.791 16.5637 998.983 22.4559 999.789 28.6865Z" fill="#D4F1F0"/>
<path d="M707.638 37.9131C707.349 40.3914 707.101 43.3674 706.633 46.3035C706.395 47.7965 705.927 49.3094 705.301 50.6929C703.789 54.057 700.766 55.759 697.763 55.1419C694.64 54.5049 692.213 51.8872 692.422 48.2444C692.701 43.4072 693.367 38.5401 694.401 33.8124C695.227 30.0601 698.498 28.169 701.919 28.6468C705.301 29.1245 707.528 31.9114 707.638 35.7931C707.648 36.3405 707.638 36.8879 707.638 37.9131Z" fill="#D4F1F0"/>
<path d="M427.053 514.984C423.632 512.745 422.538 509.5 422.508 506.017C422.439 499.069 424.129 492.431 427.063 486.17C427.709 484.787 428.982 483.234 430.325 482.766C431.996 482.179 434.213 482.159 435.874 482.766C437.873 483.503 438.45 485.653 438.151 487.793C438.032 488.678 437.793 489.564 437.455 490.39C434.323 498.154 431.15 505.907 427.978 513.651C427.819 514.049 427.491 514.367 427.053 514.984Z" fill="#D4F1F0"/>
<path d="M1279.65 487.653C1277.87 486.618 1276.58 485.991 1275.42 485.185C1271.89 482.697 1268.39 480.159 1264.91 477.601C1261.14 474.834 1259.99 470.852 1261.91 467.488C1263.82 464.154 1267.84 463.129 1272.14 464.891C1272.47 465.03 1272.8 465.189 1273.12 465.328C1277.63 467.309 1280.73 469.927 1279.76 475.7C1279.14 479.382 1279.65 483.234 1279.65 487.653Z" fill="#D4F1F0"/>
<path d="M1207.1 418.728C1207.11 424.023 1203.16 428.004 1197.88 428.014C1192.88 428.024 1188.14 423.685 1188.07 419.037C1187.99 413.841 1193 408.904 1198.41 408.855C1203.19 408.805 1207.08 413.224 1207.1 418.728Z" fill="#D4F1F0"/>
<path d="M48.5309 39.7941C51.2657 39.7145 53.2448 41.0582 54.6967 43.1583C56.7852 46.184 54.7962 49.7572 50.6392 50.2946C47.1585 50.7425 43.638 50.9117 40.1275 51.2004C37.5219 51.4193 34.9164 51.6881 32.3108 51.8573C28.9793 52.0663 26.503 50.225 26.2146 47.4182C25.9461 44.7508 27.8356 42.3919 31.0677 41.9241C36.8755 41.098 42.7131 40.4908 48.5309 39.7941Z" fill="#D4F1F0"/>
<path d="M1222.46 304.765C1225.24 305.542 1227.44 305.82 1229.32 306.746C1232.71 308.418 1233.44 312.28 1230.73 314.858C1226.02 319.337 1220.17 320.979 1213.77 319.984C1211.23 319.585 1209.48 317.754 1208.98 315.057C1208.44 312.141 1209.51 309.583 1212.03 308.398C1215.46 306.786 1219.22 305.86 1222.46 304.765Z" fill="#D4F1F0"/>
<path d="M273.803 101.673C275.294 102.827 277.194 103.773 278.318 105.276C279.66 107.087 279.352 109.555 277.711 111.009C272.609 115.527 267.368 119.907 261.978 124.087C260.089 125.56 258.507 124.684 258.308 122.216C258.159 120.295 258.298 118.175 258.975 116.393C260.884 111.317 264.136 107.107 268.522 103.902C269.835 102.947 271.595 102.578 273.803 101.673Z" fill="#D4F1F0"/>
<path d="M881.922 102.578C881.892 97.5619 885.602 93.5409 890.355 93.4413C895.238 93.3418 899.147 97.2136 899.117 102.15C899.087 107.117 894.96 111.247 889.947 111.307C885.413 111.367 881.962 107.615 881.922 102.578Z" fill="#D4F1F0"/>
<path d="M154.662 386.749C154.563 389.337 154.324 391.934 151.579 393.178C148.934 394.383 146.358 393.746 144.23 391.944C140.371 388.66 138.711 384.38 139.496 379.354C139.924 376.617 141.336 374.417 144.28 373.73C147.154 373.053 149.789 374.019 151.142 376.408C152.922 379.543 153.996 383.076 155.368 386.44C155.15 386.54 154.911 386.639 154.662 386.749Z" fill="#D4F1F0"/>
<path d="M935.604 311.484C935.505 314.31 934.888 316.729 932.233 317.953C930.065 318.959 927.082 318.202 925.381 315.535C923.382 312.399 921.751 308.936 920.558 305.412C919.563 302.486 921.174 299.64 923.69 298.356C926.266 297.042 929.478 297.679 931.497 300.137C934.232 303.462 935.296 307.433 935.604 311.484Z" fill="#D4F1F0"/>
<path d="M989.048 353.635C993.454 353.615 997.054 357.228 997.134 361.747C997.223 366.663 993.394 370.635 988.541 370.645C983.877 370.655 980.078 367.072 980.058 362.613C980.038 357.865 984.245 353.655 989.048 353.635Z" fill="#D4F1F0"/>
<path d="M432.672 227.738C434.83 227.738 436.998 227.738 439.156 227.738C442.189 227.738 444.258 229.191 444.596 231.54C444.934 233.919 443.263 235.671 440.429 236.686C435.834 238.328 431.19 237.731 426.526 237.502C425.73 237.462 424.915 237.234 424.159 236.965C421.882 236.139 420.579 234.556 420.778 232.048C420.957 229.759 422.866 228.017 425.372 227.917C427.799 227.818 430.235 227.898 432.672 227.898C432.672 227.848 432.672 227.798 432.672 227.738Z" fill="#D4F1F0"/>
<path d="M1255.45 293.23C1259.68 293.25 1262.97 296.664 1262.88 300.923C1262.79 305.203 1259.25 308.727 1255.06 308.707C1251.06 308.687 1247.69 305.283 1247.64 301.222C1247.59 296.753 1251.06 293.2 1255.45 293.23Z" fill="#D4F1F0"/>
<path d="M486.026 509.64C486.175 506.216 487.717 503.598 490.71 501.956C493.534 500.413 496.299 500.99 498.855 502.672C502.017 504.763 502.137 508.993 499.163 511.352C497.691 512.516 496.299 513.84 494.688 514.765C490.273 517.313 486.086 514.775 486.026 509.64Z" fill="#D4F1F0"/>
<path d="M163.643 316.809C162.778 316.58 161.127 316.401 159.715 315.724C157.308 314.569 156.154 312.419 156.353 309.762C156.552 307.094 158.024 305.223 160.58 304.377C163.563 303.382 166.467 303.77 169.142 305.343C171.569 306.766 172.762 309.533 172.156 312.001C171.469 314.788 169.59 316.221 166.815 316.58C166.02 316.689 165.204 316.699 163.643 316.809Z" fill="#D4F1F0"/>
<path d="M125.415 1.42502C121.964 1.40511 119.01 -1.07321 119.398 -4.14871C120.144 -10.1803 122.352 -13.843 126.857 -13.843C130.338 -13.843 133.281 -10.459 133.242 -6.72656C133.182 -2.38701 129.502 1.44493 125.415 1.42502Z" fill="#D4F1F0"/>
<path d="M73.8008 222.393C72.498 221.418 70.4891 220.662 69.9919 219.338C69.4847 217.984 69.9322 215.615 70.8969 214.501C73.5223 211.455 77.2716 210.191 81.2495 210.121C83.7357 210.072 85.8938 212.052 86.2816 214.242C86.7391 216.79 85.3965 218.552 83.2982 219.408C80.4241 220.582 77.3611 221.299 73.8008 222.393Z" fill="#D4F1F0"/>
<path d="M392.733 8.30263C392.872 10.0046 392.972 11.7066 393.161 13.4086C393.37 15.23 392.425 15.8172 390.804 15.8471C385.891 15.9366 380.541 8.03389 382.51 3.54505C383.375 1.56439 384.936 0.449639 387.124 0.350108C389.422 0.250577 391.251 1.23593 392.117 3.32608C392.743 4.84891 392.843 6.58074 393.171 8.223C393.032 8.24291 392.882 8.27277 392.733 8.30263Z" fill="#D4F1F0"/>
<path d="M764.642 255.717C760.982 255.746 757.74 252.671 757.7 249.148C757.671 245.744 760.226 243.056 763.578 242.967C767.208 242.877 770.509 246.172 770.489 249.874C770.47 253.169 767.944 255.697 764.642 255.717Z" fill="#D4F1F0"/>
<path d="M442.756 218.283C441.742 218.114 440.111 218.154 438.778 217.546C437.694 217.049 436.332 215.825 436.262 214.839C436.172 213.675 437.127 211.614 438.022 211.366C440.886 210.579 443.939 210.121 446.893 210.201C448.862 210.261 450.225 211.943 450.135 214.192C450.036 216.481 448.504 217.497 446.495 217.905C445.441 218.124 444.347 218.134 442.756 218.283Z" fill="#D4F1F0"/>
<path d="M235.684 278.459C235.753 275.384 238.23 273.005 241.253 273.105C244.196 273.194 246.474 275.573 246.464 278.539C246.464 281.624 244.057 284.033 241.004 284.013C237.931 283.993 235.614 281.585 235.684 278.459Z" fill="#D4F1F0"/>
<path d="M967.418 238.896C964.325 238.796 961.869 236.407 961.988 233.64C962.107 230.913 965.031 228.455 968.035 228.554C970.769 228.644 972.898 231.112 972.808 234.088C972.729 237.024 970.511 238.995 967.418 238.896Z" fill="#D4F1F0"/>
<path d="M890.783 241.792C890.703 244.758 888.237 247.107 885.323 246.988C882.479 246.868 880.351 244.539 880.41 241.593C880.47 238.547 882.807 236.308 885.81 236.427C888.655 236.547 890.853 238.926 890.783 241.792Z" fill="#D4F1F0"/>
<path d="M248.592 -2.24761C248.552 0.559156 246.345 2.78865 243.61 2.7787C240.766 2.76874 238.16 0.151079 238.24 -2.61588C238.319 -5.31317 240.656 -7.63224 243.311 -7.62228C246.265 -7.62228 248.632 -5.21364 248.592 -2.24761Z" fill="#D4F1F0"/>
<path d="M105.992 85.4789C105.893 88.4648 103.834 90.7043 101.239 90.6446C98.832 90.5948 97.0717 88.6639 97.1811 86.2154C97.3203 83.2793 99.6574 80.7711 102.183 80.8507C104.52 80.9303 106.082 82.8314 105.992 85.4789Z" fill="#D4F1F0"/>
<path d="M474.043 250.153C473.973 252.522 471.805 254.552 469.408 254.502C466.912 254.443 465.033 252.452 465.073 249.924C465.122 247.386 467.071 245.545 469.627 245.634C472.143 245.724 474.122 247.744 474.043 250.153Z" fill="#D4F1F0"/>
<path d="M1008.39 33.1953C1006.3 33.2451 1004.73 31.7521 1004.73 29.7018C1004.73 27.6913 1006.33 26.0291 1008.34 26.1187C1010.44 26.2083 1011.69 27.3529 1011.83 29.4928C1011.97 31.563 1010.46 33.1456 1008.39 33.1953Z" fill="#D4F1F0"/>
</g>
<defs>
<clipPath id="clip0_773_5958">
<rect width="1280" height="890" fill="white" transform="translate(0 -24)"/>
</clipPath>
</defs>
</svg>
