<svg width="842" height="311" viewBox="0 0 842 311" fill="none" xmlns="http://www.w3.org/2000/svg">
<path fill-rule="evenodd" clip-rule="evenodd" d="M554.007 290.809C630.758 298.215 710.478 305.908 842 283.763L842 102.408L841.123 102.384C841.571 62.0101 842 22.0964 842 16.9255C744.158 15.3891 713.832 10.144 689.372 5.91352C670.887 2.71644 655.752 0.0988211 617.36 0.0992515C529.406 -0.874023 507.1 5.46566 483.096 12.2879C459.992 18.8543 435.315 25.8677 349.015 27.2377C302.641 27.9739 262.736 24.123 221.993 20.1913C145.242 12.7847 65.5219 5.09167 -66 27.2374L-66 208.592L-65.1227 208.616C-65.5714 248.99 -66 288.904 -66 294.074C31.8422 295.611 62.1683 300.856 86.6282 305.086C105.113 308.283 120.248 310.901 158.64 310.901C246.594 311.874 268.9 305.534 292.904 298.712C316.008 292.146 340.685 285.132 426.985 283.762C473.359 283.026 513.264 286.877 554.007 290.809Z" fill="#D4F1F0"/>
</svg>
